<svg width="672" height="607" viewBox="0 0 672 607" fill="none" xmlns="http://www.w3.org/2000/svg">
<path d="M670.366 272.029C668.684 275.529 631.306 251.316 623.528 244.317C623.528 244.317 594.474 253.917 564.623 258.599C559.577 259.403 554.49 260.018 549.528 260.443C538.891 261.389 528.758 261.342 520.517 259.592C511.772 257.748 504.12 255.43 497.435 252.309C478.052 243.229 466.742 227.387 459.552 196.979C459.384 196.269 459.216 195.56 459.047 194.803C457.155 186.433 455.263 178.204 453.54 169.881C446.602 135.784 443.239 100.174 460.057 49.289C468.802 22.8533 514.126 11.7872 553.901 4.45713C593.676 -2.87297 609.947 -3.67692 633.997 21.8129C658.047 47.3028 659.434 55.2476 662.335 92.4656C664.858 124.671 664.143 168.935 661.704 191.115C661.326 194.567 660.906 197.499 660.443 199.769C657.037 216.463 649.553 217.739 649.848 219.489C650.142 221.239 672.09 268.53 670.366 272.029Z" fill="#FBD931"/>
<path d="M523.503 170.401C535.36 190.5 547.174 234.575 549.571 258.268V260.443C538.933 261.389 528.801 261.341 520.56 259.592C511.814 257.747 504.162 255.43 497.477 252.309C497.603 248.478 497.982 236.514 497.855 235.048C497.729 233.298 494.87 230.413 492.221 228.616C489.573 226.866 489.615 209.274 492.221 208.092C492.221 208.092 490.287 204.781 488.143 204.64C485.999 204.545 475.572 203.079 467.373 196.695C465.102 197.309 462.454 197.451 459.595 196.978C459.258 196.931 458.922 196.837 458.585 196.789C446.014 194.094 447.486 184.399 454.97 182.082C448.116 179.244 448.705 173.002 453.582 169.881C454.045 169.597 454.507 169.36 455.012 169.124L454.507 168.084L460.183 139.142C466.574 135.406 467.667 132.19 485.747 137.392C501.766 142.026 516.061 164.348 519.088 169.36C519.971 167.374 521.19 166.523 523.503 170.401Z" fill="#FFFEF2"/>
<path d="M670.366 272.03C668.684 275.529 631.306 251.316 623.528 244.317C623.528 244.317 594.475 253.917 564.623 258.599L564.833 257.086C568.365 238.075 582.323 205.822 582.323 205.822C582.323 205.822 576.689 194.236 576.689 184.589C576.689 180.049 577.446 178.015 580.095 176.786C578.792 165.483 573.494 144.202 573.494 144.202C572.485 142.831 572.191 141.365 572.191 141.365C572.191 141.365 568.533 147.702 563.319 145.952C558.232 144.25 559.619 137.96 559.661 137.676C559.535 137.818 556.928 140.466 554.7 138.622C552.766 137.061 553.985 130.346 557.643 126.043C542.675 125.191 540.951 124.435 541.246 121.834C541.582 118.949 556.214 84.9467 567.145 69.6244C567.145 69.6244 567.145 69.6245 567.187 69.5772C567.229 69.5299 567.229 69.4826 567.313 69.4353C567.44 69.2934 567.566 69.057 567.818 68.7732C567.902 68.6313 567.986 68.5368 568.112 68.3949C568.154 68.3003 568.238 68.253 568.322 68.1584C571.77 63.5712 582.576 50.1406 590.985 49.4312C608.644 48.0125 621.425 67.4491 624.999 73.5969C624.999 73.5969 634.249 58.7948 642.027 67.6382C651.109 77.9477 632.315 93.0808 632.315 93.0808C632.315 93.0808 636.982 112.707 645.854 140.23C646.947 143.682 648.082 147.182 649.133 150.539C654.977 168.936 660.023 185.535 661.705 191.21C661.326 194.662 660.906 197.594 660.443 199.864C657.038 216.558 649.553 217.834 649.848 219.584C650.142 221.239 672.09 268.53 670.366 272.03Z" fill="#FFFEF2"/>
<path d="M231.416 316.294C226.244 336.393 217.373 354.269 203.876 367.794C178.271 393.473 135.847 403.593 69.8788 383.637C41.9189 413.099 35.4439 408.937 38.8496 402.553C43.2223 394.277 49.9495 372.902 49.9495 372.902C49.3188 372.618 45.0302 367.936 39.186 359.518C24.4702 338.379 0 293.973 0 238.359C0 160.612 45.3245 120.273 92.6672 108.403C158.047 91.9931 212.075 130.157 227.337 189.413C232.887 211.025 236.587 234.717 237.218 258.126C237.807 278.272 236.083 298.182 231.416 316.294Z" fill="#FBD931"/>
<path d="M235.873 304.187C241.045 309.058 238.48 314.26 231.416 316.341C229.062 317.05 226.161 317.381 222.923 317.24C222.377 317.192 221.872 317.192 221.368 317.145C214.094 331.711 203.204 329.724 201.606 331.852C201.018 332.609 200.387 335.399 199.756 338.71C198.579 345.047 197.528 353.37 197.528 353.37C200.934 354.93 203.288 361.409 203.835 367.841C178.229 393.52 135.806 403.64 69.8373 383.683C41.8773 413.146 35.4024 408.984 38.8081 402.6C43.1807 394.324 49.9079 372.948 49.9079 372.948C49.2773 372.665 44.9887 367.983 39.1444 359.565C66.0532 295.438 62.5215 243.135 62.5215 243.135C34.9399 244.27 35.1922 215.28 52.5568 218.259C45.3671 207.383 53.2295 186.622 72.0236 194.945C72.0236 194.945 64.4555 173.617 82.3246 167.469C97.3347 162.314 101.245 176.171 112.471 178.913C138.833 185.44 127.103 170.023 129.92 170.59C147.831 174.326 143.248 189.98 129.709 197.83C129.415 198.019 129.079 198.161 128.784 198.35C146.485 221.428 167.592 260.821 164.733 262.855C161.706 265.03 135.343 256.565 135.343 256.565L131.77 340.412C131.77 340.412 138.623 356.444 143.71 373.421C147.326 353.985 149.597 348.357 155.063 346.134C156.198 345.661 157.207 344.29 158.09 342.209C159.603 338.71 160.865 333.366 162.042 327.691C163.514 320.739 164.943 313.314 166.709 308.349C173.857 288.628 184.915 253.87 215.986 262.287C219.476 258.599 224.185 256.376 229.356 256.376C232.089 256.376 234.738 256.991 237.176 258.126C244.913 261.72 250.631 270.421 250.967 280.589C251.472 292.081 244.955 301.681 235.873 304.187Z" fill="#FFFEF2"/>
<path d="M143.752 375.077C143.668 375.077 143.542 375.077 143.458 375.03C142.659 374.84 142.155 373.989 142.323 373.091C145.812 354.316 148.209 347.175 154.6 344.574C158.72 342.919 162.63 322.111 164.522 312.085C164.817 310.619 165.069 309.201 165.321 307.971C168.222 293.027 176.169 273.827 189.665 264.7C198.074 259.025 207.661 257.843 218.172 261.2C218.971 261.437 219.391 262.383 219.181 263.234C218.971 264.132 218.13 264.605 217.373 264.369C207.661 261.295 198.831 262.335 191.179 267.537C178.481 276.097 170.955 294.399 168.18 308.68C167.928 309.91 167.676 311.329 167.382 312.795C164.018 330.623 160.78 345.567 155.567 347.695C150.816 349.634 148.671 354.978 145.182 373.753C145.056 374.557 144.467 375.077 143.752 375.077Z" fill="#202D37"/>
<path d="M220.232 308.066C214.64 308.066 210.31 305.843 208.712 302.438C208.081 301.114 206.525 296.385 212.916 291.94C213.589 291.467 214.514 291.703 214.934 292.46C215.355 293.216 215.145 294.257 214.472 294.73C213.127 295.676 210.057 298.182 211.319 300.83C213.084 304.566 221.493 306.789 231.164 301.871C231.921 301.492 232.762 301.871 233.098 302.722C233.434 303.573 233.098 304.519 232.341 304.897C228.053 307.12 223.89 308.066 220.232 308.066Z" fill="#202D37"/>
<path d="M224.184 318.895C223.764 318.895 223.301 318.895 222.881 318.848C216.448 318.611 212.117 316.105 211.361 312.132C210.772 309.248 212.328 306.316 215.439 304.518C216.154 304.093 217.037 304.424 217.415 305.228C217.794 306.032 217.499 307.025 216.784 307.451C214.934 308.538 213.967 310.052 214.22 311.423C214.598 313.315 217.457 315.348 223.007 315.537C231.206 315.868 235.999 312.936 236.966 310.099C237.807 307.687 235.957 305.275 234.275 303.667C233.645 303.1 233.56 302.012 234.107 301.35C234.612 300.641 235.579 300.546 236.167 301.161C240.792 305.512 240.372 309.389 239.699 311.328C238.101 315.963 232.089 318.895 224.184 318.895Z" fill="#202D37"/>
<path d="M239.466 302.735C249.751 297.325 253.967 283.024 248.881 270.793C243.796 258.562 231.335 253.033 221.05 258.443C210.765 263.853 206.549 278.154 211.635 290.385C216.72 302.616 229.18 308.145 239.466 302.735Z" fill="#06D188"/>
<path d="M573.789 98.4242C572.822 98.2351 572.191 97.1946 572.359 96.1542L573.158 91.1887C573.326 90.101 574.251 89.3916 575.176 89.5808C576.143 89.77 576.774 90.8104 576.606 91.8508L575.807 96.8163C575.639 97.8567 574.756 98.6134 573.789 98.4242Z" fill="#202D37"/>
<path d="M588.168 99.1342C587.201 98.945 586.571 97.9046 586.739 96.8642L587.538 91.8986C587.706 90.811 588.631 90.1016 589.556 90.2908C590.523 90.4799 591.153 91.5203 590.985 92.5607L590.186 97.5263C590.018 98.5667 589.135 99.3233 588.168 99.1342Z" fill="#202D37"/>
<path d="M103.599 238.358C102.632 238.453 101.791 237.649 101.707 236.561L101.329 231.548C101.245 230.461 101.959 229.515 102.926 229.42C103.893 229.326 104.734 230.13 104.818 231.217L105.197 236.23C105.281 237.318 104.566 238.264 103.599 238.358Z" fill="#202D37"/>
<path d="M123.108 234.954C122.141 235.048 121.3 234.244 121.216 233.157L120.838 228.144C120.754 227.056 121.468 226.11 122.436 226.016C123.403 225.921 124.243 226.725 124.328 227.813L124.706 232.826C124.748 233.913 124.033 234.859 123.108 234.954Z" fill="#202D37"/>
<path d="M239.993 283.143C240.414 284.515 240.498 285.697 240.245 286.737C239.993 287.778 239.363 288.724 238.311 289.528L239.405 293.074C239.447 293.169 239.447 293.264 239.405 293.358C239.363 293.453 239.278 293.5 239.194 293.547L235.032 295.155C234.948 295.202 234.864 295.202 234.78 295.155C234.696 295.108 234.653 295.013 234.611 294.919L233.644 291.75C232.846 292.034 232.131 292.223 231.458 292.365C231.374 292.365 231.29 292.365 231.206 292.318C231.122 292.27 231.08 292.176 231.038 292.081L230.197 288.203C230.155 288.062 230.197 287.967 230.239 287.872C230.281 287.778 230.365 287.73 230.491 287.73C230.743 287.683 231.038 287.636 231.332 287.589C231.626 287.541 231.963 287.447 232.425 287.352C232.888 287.258 233.266 287.116 233.644 286.974C234.065 286.832 234.359 286.643 234.611 286.406C234.864 286.17 234.99 285.933 235.074 285.697C235.116 285.461 235.158 285.271 235.158 285.082C235.158 284.94 235.158 284.798 235.116 284.657C235.074 284.515 234.99 284.373 234.906 284.278C234.822 284.136 234.653 283.995 234.443 283.805C234.233 283.616 233.939 283.474 233.56 283.38C233.182 283.285 232.719 283.285 232.215 283.332C231.626 283.38 231.038 283.38 230.449 283.238C229.86 283.096 229.272 282.86 228.683 282.528C228.094 282.197 227.59 281.677 227.085 281.062C226.581 280.4 226.202 279.644 225.95 278.792C225.572 277.563 225.53 276.428 225.824 275.34C226.118 274.3 226.749 273.354 227.674 272.503L226.539 268.861C226.497 268.767 226.497 268.672 226.539 268.578C226.581 268.483 226.623 268.388 226.749 268.388L230.911 266.781C230.996 266.733 231.08 266.733 231.206 266.781C231.29 266.828 231.374 266.922 231.374 267.017L232.341 270.186C233.098 269.949 233.855 269.713 234.611 269.523C234.696 269.523 234.78 269.523 234.864 269.571C234.948 269.618 234.99 269.713 235.032 269.807L235.873 273.685C235.873 273.78 235.873 273.874 235.831 274.016C235.789 274.111 235.705 274.158 235.578 274.205C234.317 274.394 233.224 274.631 232.299 275.009C231.921 275.151 231.584 275.34 231.332 275.577C231.08 275.813 230.954 276.05 230.869 276.286C230.827 276.523 230.785 276.712 230.785 276.901C230.785 277.043 230.785 277.185 230.827 277.326C230.869 277.421 230.911 277.563 231.038 277.705C231.122 277.847 231.29 277.989 231.5 278.178C231.71 278.367 232.005 278.509 232.383 278.603C232.761 278.698 233.224 278.698 233.729 278.651C234.317 278.603 234.906 278.651 235.494 278.792C236.083 278.934 236.672 279.171 237.26 279.502C237.849 279.833 238.353 280.353 238.858 280.968C239.363 281.535 239.741 282.292 239.993 283.143Z" fill="#202D37"/>
<path d="M234.947 295.911C234.821 295.911 234.653 295.864 234.527 295.817C234.275 295.675 234.106 295.486 234.022 295.202L233.266 292.696C232.677 292.885 232.13 293.027 231.626 293.169C231.374 293.216 231.121 293.169 230.911 293.027C230.701 292.885 230.533 292.696 230.491 292.412V292.365L229.65 288.487C229.566 288.156 229.65 287.825 229.818 287.588C229.986 287.352 230.238 287.163 230.533 287.115C230.785 287.068 231.079 287.021 231.332 286.973C231.626 286.926 231.962 286.832 232.383 286.737C232.803 286.642 233.182 286.501 233.518 286.359C233.854 286.217 234.106 286.075 234.275 285.933C234.485 285.744 234.527 285.602 234.527 285.602C234.569 285.413 234.569 285.271 234.569 285.176C234.569 285.035 234.569 284.987 234.569 284.987C234.569 284.94 234.527 284.893 234.485 284.798C234.443 284.751 234.359 284.656 234.149 284.467C234.064 284.372 233.896 284.278 233.518 284.183C233.182 284.089 232.803 284.089 232.341 284.136C231.71 284.231 231.037 284.183 230.364 283.994C229.734 283.852 229.061 283.569 228.43 283.19C227.8 282.812 227.169 282.244 226.622 281.535C226.076 280.826 225.655 279.974 225.361 279.029C224.941 277.657 224.899 276.333 225.235 275.151C225.529 274.11 226.118 273.165 226.917 272.313L225.95 269.145C225.866 268.861 225.866 268.577 225.992 268.341C226.118 268.057 226.286 267.868 226.58 267.726L230.743 266.118C230.995 266.024 231.247 266.024 231.5 266.165C231.752 266.307 231.92 266.496 232.004 266.78L232.761 269.287C233.35 269.097 233.896 268.956 234.485 268.814C234.737 268.766 234.947 268.814 235.2 268.956C235.452 269.097 235.62 269.381 235.662 269.665L236.503 273.543C236.545 273.874 236.503 274.158 236.377 274.394C236.209 274.678 235.956 274.867 235.662 274.867C234.485 275.009 233.434 275.293 232.551 275.624C232.214 275.718 231.962 275.86 231.794 276.049C231.584 276.238 231.542 276.333 231.542 276.428C231.5 276.664 231.458 276.806 231.458 276.853C231.458 276.948 231.458 276.995 231.5 277.042C231.5 277.042 231.542 277.137 231.584 277.232C231.626 277.279 231.71 277.373 231.92 277.563C232.004 277.657 232.214 277.752 232.551 277.846C232.887 277.941 233.266 277.941 233.728 277.894C234.359 277.846 235.031 277.894 235.662 278.035C236.335 278.177 236.966 278.461 237.596 278.839C238.227 279.218 238.858 279.785 239.362 280.495C239.909 281.204 240.287 282.055 240.581 283.001C241.044 284.467 241.128 285.838 240.834 287.021C240.581 288.061 239.951 289.054 239.068 289.858L239.993 292.885C240.077 293.169 240.077 293.452 239.951 293.736C239.825 294.02 239.656 294.209 239.404 294.304L235.242 295.911C235.158 295.911 235.031 295.911 234.947 295.911ZM233.644 291.088C233.896 291.088 234.149 291.277 234.233 291.561L235.116 294.398L238.731 292.979L237.722 289.764C237.638 289.48 237.722 289.149 237.933 288.96C238.816 288.25 239.404 287.446 239.614 286.548C239.825 285.649 239.783 284.562 239.404 283.379C239.152 282.575 238.816 281.913 238.395 281.299C237.975 280.731 237.512 280.305 237.008 279.974C236.503 279.643 235.956 279.454 235.41 279.312C234.863 279.17 234.317 279.17 233.812 279.218C233.266 279.265 232.719 279.265 232.299 279.17C231.794 279.076 231.416 278.887 231.163 278.65C230.911 278.414 230.701 278.225 230.575 278.035C230.449 277.846 230.364 277.657 230.28 277.468C230.196 277.279 230.196 277.042 230.196 276.806C230.196 276.569 230.238 276.333 230.322 276.002C230.407 275.624 230.659 275.293 230.995 274.962C231.289 274.678 231.71 274.441 232.172 274.252C233.055 273.921 234.106 273.685 235.242 273.496L234.527 270.232C233.896 270.422 233.224 270.611 232.593 270.8C232.257 270.895 231.92 270.705 231.836 270.374L230.953 267.49L227.337 268.908L228.388 272.266C228.472 272.55 228.388 272.881 228.178 273.07C227.337 273.779 226.791 274.631 226.538 275.576C226.286 276.475 226.328 277.468 226.665 278.556C226.917 279.36 227.253 280.022 227.674 280.636C228.094 281.204 228.599 281.677 229.103 281.961C229.608 282.244 230.154 282.481 230.701 282.623C231.247 282.765 231.752 282.765 232.257 282.717C232.845 282.67 233.35 282.67 233.812 282.765C234.317 282.859 234.695 283.048 234.989 283.332C235.242 283.569 235.41 283.758 235.536 283.947C235.662 284.136 235.788 284.325 235.83 284.562C235.872 284.751 235.914 284.987 235.914 285.224C235.914 285.46 235.872 285.697 235.788 286.028C235.704 286.406 235.494 286.737 235.158 287.068C234.863 287.352 234.443 287.588 233.98 287.777C233.602 287.919 233.182 288.061 232.719 288.156C232.257 288.25 231.878 288.345 231.584 288.392C231.374 288.44 231.205 288.439 231.037 288.487L231.752 291.75C232.299 291.608 232.929 291.419 233.602 291.182C233.518 291.088 233.602 291.088 233.644 291.088Z" fill="#202D37"/>
<path d="M575.68 128.596H575.638C547.132 127.272 542.339 126.941 540.489 124.482C539.648 123.347 539.774 122.023 539.858 121.597C540.236 118.003 560.712 70.2863 572.022 61.8685C572.695 61.3483 573.62 61.5848 574.041 62.3415C574.503 63.0981 574.293 64.1385 573.62 64.6114C563.529 72.0834 543.306 118.429 542.717 122.023C542.675 122.306 542.717 122.354 542.717 122.401C543.726 123.772 555.078 124.34 575.722 125.286C576.521 125.333 577.152 126.09 577.152 126.988C577.11 127.887 576.479 128.596 575.68 128.596Z" fill="#202D37"/>
<path d="M567.188 69.577C572.191 76.9071 582.324 77.2381 591.826 68.9622C601.328 60.6863 604.356 86.7436 614.615 82.9131C624.874 79.0825 626.009 75.2992 626.009 75.2992C626.009 75.2992 611.924 47.634 590.985 49.3365C580.852 50.1877 567.188 69.577 567.188 69.577Z" fill="#202D37"/>
<path d="M612.597 84.9936C608.014 84.9936 604.776 79.9808 602.127 75.8665C600.067 72.698 597.965 69.3876 595.821 69.0566C594.896 68.9147 593.887 69.293 592.709 70.3334C587.117 75.2044 581.021 77.4744 575.513 76.6704C571.603 76.1029 568.323 74.0221 566.011 70.6172C565.59 70.0024 565.59 69.1984 566.011 68.5837C566.599 67.7797 580.18 48.5796 590.859 47.7283C612.512 45.9786 626.682 73.3601 627.27 74.5423C627.481 74.9679 627.523 75.4409 627.396 75.9138C627.186 76.6704 625.504 80.6428 615.077 84.5207C614.194 84.8045 613.395 84.9936 612.597 84.9936ZM595.442 65.6989C595.694 65.6989 595.989 65.6989 596.241 65.7462C599.605 66.2664 602.001 69.9551 604.482 73.8802C607.972 79.2714 610.494 82.7237 614.152 81.3522C620.921 78.7985 623.444 76.3867 624.285 75.299C621.72 70.759 608.813 49.5727 591.112 50.9914C583.039 51.6535 572.107 65.557 569.122 69.5295C570.888 71.6103 573.2 72.9344 575.933 73.3128C580.642 73.9748 585.94 71.9886 590.943 67.6378C592.415 66.361 593.971 65.6989 595.442 65.6989Z" fill="#202D37"/>
<path d="M629.792 84.4261C629.624 84.4261 629.456 84.3788 629.288 84.3315C628.531 84.0005 628.152 83.0546 628.405 82.2034C630.381 76.1029 635.426 71.9413 635.636 71.7521C636.309 71.2319 637.234 71.3738 637.697 72.1304C638.159 72.8871 638.033 73.9275 637.36 74.4477C637.318 74.495 632.819 78.231 631.138 83.3384C630.927 84.0478 630.381 84.4261 629.792 84.4261Z" fill="#202D37"/>
<path d="M559.788 124.104C554.574 127.887 552.514 136.778 554.785 138.622C557.055 140.466 559.746 137.629 559.746 137.629C559.746 137.629 558.19 144.155 563.404 145.905C568.617 147.655 572.275 141.318 572.275 141.318C572.275 141.318 573.747 148.08 580.264 146.236C585.057 144.865 586.444 139.095 586.444 139.095C586.444 139.095 589.219 143.02 594.853 141.129C600.488 139.284 600.992 126.799 588.084 122.496C577.657 119.044 563.236 121.55 559.788 124.104Z" fill="#202D37"/>
<path d="M577.994 148.222C576.606 148.222 575.345 147.844 574.252 147.087C573.158 146.33 572.36 145.337 571.813 144.392C570.047 146.378 566.894 148.837 562.899 147.513C559.368 146.33 558.19 143.304 557.98 140.608C556.677 141.081 555.205 141.081 553.86 139.946C553.145 139.331 552.262 138.102 552.346 135.501C552.43 131.528 554.785 125.712 558.947 122.685C562.815 119.895 577.531 117.247 588.421 120.888C596.998 123.773 600.025 129.92 600.025 134.744C600.025 138.622 598.133 141.743 595.19 142.689C591.322 143.966 588.589 142.878 586.949 141.743C585.982 143.824 584.048 146.803 580.558 147.796C579.675 148.128 578.834 148.222 577.994 148.222ZM572.191 139.71C572.275 139.71 572.36 139.71 572.444 139.71C573.032 139.804 573.495 140.325 573.621 140.939C573.621 140.939 574.125 143.162 575.807 144.25C576.858 144.959 578.204 145.054 579.844 144.628C583.754 143.493 584.931 138.717 584.973 138.669C585.099 138.055 585.562 137.629 586.108 137.487C586.655 137.345 587.201 137.582 587.538 138.055C587.622 138.149 589.85 141.034 594.391 139.568C596.031 139.048 597.082 137.156 597.124 134.791C597.124 131.15 594.643 126.421 587.622 124.104C577.279 120.651 563.446 123.442 560.587 125.522C557.392 127.84 555.415 132.474 555.331 135.643C555.289 136.778 555.542 137.251 555.626 137.298C556.845 138.291 558.695 136.447 558.695 136.447C559.157 135.926 559.914 135.879 560.461 136.257C561.007 136.636 561.302 137.392 561.134 138.102C561.007 138.622 560.082 143.162 563.782 144.392C567.903 145.763 570.93 140.561 570.972 140.514C571.266 139.993 571.729 139.71 572.191 139.71Z" fill="#202D37"/>
<path d="M580.096 178.441C579.381 178.441 578.751 177.826 578.624 177.022C577.363 165.956 572.149 144.912 572.065 144.675C571.855 143.777 572.318 142.878 573.074 142.642C573.873 142.405 574.672 142.925 574.882 143.777C575.093 144.628 580.222 165.294 581.526 176.597C581.61 177.495 581.063 178.346 580.264 178.441C580.222 178.394 580.18 178.441 580.096 178.441Z" fill="#202D37"/>
<path d="M600.319 207.762C598.847 207.762 597.376 207.714 595.946 207.572C595.147 207.478 594.517 206.674 594.601 205.775C594.685 204.877 595.399 204.167 596.198 204.262C610.41 205.634 627.69 199.817 641.271 189.129C641.943 188.609 642.868 188.798 643.331 189.555C643.793 190.311 643.625 191.352 642.952 191.872C630.171 201.898 614.236 207.762 600.319 207.762Z" fill="#202D37"/>
<path d="M518.752 170.448C518.289 170.448 517.827 170.212 517.532 169.739C513.748 163.638 500.294 143.303 485.41 139.047C470.274 134.696 467.625 136.399 463.21 139.189C462.495 139.662 461.739 140.135 460.898 140.655C460.183 141.081 459.3 140.75 458.922 139.946C458.543 139.142 458.838 138.149 459.552 137.723C460.351 137.25 461.066 136.777 461.781 136.352C467.078 132.947 470.61 131.386 486.167 135.879C502.018 140.466 516.061 161.558 520.013 167.895C520.476 168.651 520.307 169.692 519.635 170.212C519.34 170.354 519.046 170.448 518.752 170.448Z" fill="#202D37"/>
<path d="M492.222 209.748C491.759 209.748 491.255 209.464 491.002 208.991C490.372 207.951 489.026 206.343 488.059 206.296C487.933 206.296 475.866 205.444 466.238 197.83C465.565 197.31 465.397 196.27 465.901 195.513C466.364 194.757 467.289 194.567 467.962 195.135C475.446 201.046 485.368 202.843 488.227 202.985C491.044 203.127 493.231 206.768 493.483 207.194C493.945 207.951 493.735 208.991 493.062 209.464C492.768 209.653 492.474 209.748 492.222 209.748Z" fill="#202D37"/>
<path d="M459.678 181.61C485.032 183.927 474.268 200.148 458.543 196.79C443.659 193.574 448.452 180.569 459.678 181.61Z" fill="#FFFEF2"/>
<path d="M462.832 198.918C461.402 198.918 459.847 198.776 458.249 198.398C449.798 196.601 447.275 191.777 447.738 187.899C448.284 183.501 452.909 179.34 459.763 179.954C471.073 180.995 474.773 184.589 475.866 187.474C476.665 189.554 476.328 191.777 474.899 193.716C472.965 196.506 468.592 198.918 462.832 198.918ZM458.459 183.218C454.002 183.218 450.975 185.771 450.681 188.372C450.302 191.399 453.498 194.047 458.796 195.182C465.228 196.554 470.652 194.473 472.628 191.683C473.343 190.689 473.511 189.696 473.175 188.798C472.797 187.757 470.61 184.305 459.552 183.312C459.216 183.218 458.838 183.218 458.459 183.218Z" fill="#202D37"/>
<path d="M460.184 168.132C486.63 168.037 476.749 185.251 460.184 183.359C444.501 181.562 448.453 168.179 460.184 168.132Z" fill="#FFFEF2"/>
<path d="M462.748 185.156C461.865 185.156 460.983 185.109 460.015 185.015C451.186 184.022 448.201 179.482 448.369 175.556C448.537 171.158 452.742 166.524 460.142 166.477C460.226 166.477 460.31 166.477 460.394 166.477C469.602 166.477 475.488 168.557 477.338 172.483C478.263 174.421 478.095 176.597 476.876 178.63C474.984 181.941 469.812 185.156 462.748 185.156ZM460.184 169.787C454.886 169.787 451.438 172.861 451.312 175.698C451.186 178.725 454.718 181.089 460.31 181.704C467.163 182.461 472.713 179.718 474.479 176.786C475.068 175.793 475.194 174.847 474.773 174.043C474.311 173.05 471.83 169.787 460.436 169.787C460.352 169.787 460.268 169.787 460.184 169.787Z" fill="#202D37"/>
<path d="M461.365 180.814C472.173 173.925 476.351 159.241 470.695 148.016C465.04 136.791 451.694 133.275 440.886 140.164C430.078 147.053 425.901 161.737 431.556 172.962C437.211 184.187 450.557 187.702 461.365 180.814Z" fill="#06D188"/>
<path d="M458.501 162.362C458.963 163.828 459.047 165.105 458.753 166.24C458.459 167.375 457.786 168.368 456.693 169.219L457.87 173.002C457.912 173.097 457.912 173.239 457.87 173.333C457.828 173.428 457.744 173.522 457.66 173.522L453.203 175.272C453.119 175.32 452.993 175.32 452.909 175.272C452.825 175.225 452.741 175.13 452.741 175.036L451.689 171.678C450.849 171.962 450.05 172.198 449.377 172.34C449.293 172.34 449.209 172.34 449.125 172.293C449.041 172.246 448.956 172.151 448.956 172.056L448.073 167.895C448.031 167.753 448.074 167.658 448.116 167.564C448.2 167.469 448.284 167.422 448.41 167.375C448.704 167.327 448.998 167.28 449.293 167.233C449.587 167.185 450.008 167.091 450.47 166.949C450.933 166.854 451.395 166.713 451.773 166.523C452.194 166.382 452.572 166.145 452.825 165.909C453.077 165.672 453.245 165.388 453.287 165.152C453.329 164.915 453.371 164.679 453.371 164.49C453.371 164.301 453.371 164.159 453.329 164.017C453.287 163.875 453.203 163.733 453.119 163.591C453.035 163.449 452.867 163.26 452.656 163.071C452.446 162.882 452.11 162.74 451.689 162.646C451.269 162.551 450.764 162.551 450.218 162.598C449.587 162.693 448.956 162.646 448.326 162.456C447.695 162.314 447.064 162.031 446.434 161.7C445.803 161.321 445.256 160.801 444.71 160.092C444.205 159.382 443.785 158.578 443.491 157.633C443.07 156.309 443.028 155.079 443.364 153.944C443.701 152.809 444.331 151.816 445.341 150.917L444.121 147.039C444.079 146.945 444.079 146.803 444.121 146.708C444.163 146.614 444.247 146.519 444.332 146.472L448.788 144.722C448.872 144.675 448.998 144.675 449.083 144.77C449.167 144.817 449.251 144.911 449.293 145.006L450.344 148.364C451.143 148.08 451.942 147.843 452.783 147.654C452.867 147.654 452.951 147.654 453.077 147.702C453.161 147.749 453.245 147.843 453.245 147.938L454.128 152.1C454.17 152.194 454.128 152.336 454.086 152.431C454.044 152.525 453.96 152.62 453.834 152.62C452.488 152.809 451.311 153.093 450.302 153.471C449.881 153.613 449.545 153.802 449.293 154.086C449.041 154.322 448.872 154.606 448.788 154.843C448.704 155.079 448.704 155.315 448.704 155.505C448.704 155.694 448.704 155.836 448.746 155.977C448.788 156.119 448.872 156.214 448.956 156.403C449.041 156.545 449.209 156.734 449.461 156.923C449.671 157.112 450.008 157.254 450.428 157.349C450.849 157.443 451.353 157.491 451.9 157.396C452.53 157.349 453.161 157.396 453.792 157.538C454.422 157.68 455.053 157.916 455.684 158.295C456.314 158.673 456.861 159.193 457.408 159.903C457.828 160.612 458.206 161.416 458.501 162.362Z" fill="#202D37"/>
<path d="M453.077 175.982C452.909 175.982 452.783 175.935 452.657 175.887C452.404 175.746 452.236 175.509 452.152 175.225L451.311 172.482C450.68 172.672 450.05 172.861 449.503 173.003C449.251 173.05 448.999 173.003 448.788 172.861C448.578 172.719 448.41 172.482 448.326 172.246V172.199L447.443 168.037C447.359 167.706 447.443 167.375 447.611 167.091C447.779 166.808 448.032 166.666 448.326 166.618C448.62 166.571 448.915 166.524 449.209 166.476C449.503 166.429 449.882 166.335 450.344 166.24C450.807 166.145 451.227 166.004 451.563 165.862C451.942 165.72 452.194 165.578 452.404 165.389C452.614 165.2 452.657 165.058 452.699 165.01C452.741 164.774 452.783 164.632 452.783 164.538C452.783 164.396 452.783 164.348 452.741 164.301C452.741 164.254 452.699 164.159 452.614 164.065C452.572 164.017 452.488 163.875 452.236 163.686C452.152 163.592 451.942 163.497 451.521 163.403C451.143 163.308 450.722 163.308 450.26 163.355C449.587 163.45 448.872 163.403 448.158 163.213C447.485 163.072 446.77 162.788 446.098 162.362C445.425 161.937 444.752 161.369 444.205 160.612C443.617 159.856 443.196 158.957 442.86 157.917C442.398 156.451 442.355 155.032 442.734 153.755C443.07 152.62 443.659 151.58 444.584 150.729L443.533 147.276C443.449 146.993 443.449 146.709 443.575 146.425C443.701 146.141 443.911 145.905 444.163 145.81L448.62 144.061C448.872 143.966 449.167 143.966 449.419 144.108C449.671 144.25 449.839 144.486 449.924 144.77L450.764 147.513C451.395 147.324 452.026 147.134 452.657 146.993C452.909 146.945 453.161 146.993 453.371 147.134C453.624 147.276 453.792 147.56 453.876 147.844L454.759 152.005C454.801 152.336 454.759 152.62 454.633 152.904C454.464 153.188 454.212 153.377 453.918 153.424C452.657 153.613 451.521 153.85 450.554 154.228C450.218 154.37 449.924 154.512 449.755 154.701C449.545 154.89 449.503 155.032 449.461 155.127C449.377 155.363 449.377 155.505 449.377 155.6C449.377 155.694 449.377 155.741 449.419 155.836C449.419 155.883 449.461 155.931 449.545 156.025C449.587 156.072 449.671 156.214 449.924 156.403C450.008 156.498 450.218 156.593 450.638 156.687C451.017 156.782 451.437 156.782 451.9 156.735C452.572 156.687 453.287 156.735 453.96 156.876C454.675 157.018 455.347 157.302 456.02 157.728C456.693 158.153 457.366 158.721 457.912 159.477C458.459 160.234 458.921 161.133 459.216 162.173C459.72 163.734 459.804 165.2 459.468 166.476C459.174 167.611 458.543 168.652 457.534 169.55L458.543 172.861C458.627 173.144 458.627 173.428 458.501 173.712C458.375 173.996 458.164 174.185 457.912 174.279L453.455 176.029C453.287 175.982 453.161 175.982 453.077 175.982ZM451.69 170.922C451.942 170.922 452.194 171.111 452.278 171.395L453.245 174.516L457.197 172.955L456.104 169.456C456.02 169.172 456.104 168.841 456.314 168.652C457.281 167.895 457.912 166.997 458.122 166.051C458.375 165.058 458.291 163.923 457.87 162.599C457.618 161.747 457.239 160.991 456.777 160.376C456.314 159.761 455.81 159.288 455.263 158.957C454.717 158.626 454.128 158.39 453.539 158.248C452.951 158.106 452.362 158.059 451.816 158.106C451.227 158.153 450.68 158.153 450.176 158.011C449.671 157.87 449.251 157.728 448.957 157.444C448.704 157.207 448.494 157.018 448.368 156.782C448.242 156.593 448.116 156.356 448.074 156.167C447.99 155.931 447.99 155.694 447.99 155.458C447.99 155.221 448.032 154.937 448.116 154.654C448.2 154.275 448.452 153.897 448.788 153.566C449.125 153.235 449.545 152.999 450.05 152.857C451.017 152.478 452.152 152.195 453.371 152.053L452.614 148.459C451.9 148.648 451.185 148.837 450.47 149.073C450.134 149.168 449.797 148.979 449.713 148.648L448.746 145.527L444.752 147.087L445.887 150.729C445.971 151.012 445.887 151.343 445.677 151.533C444.794 152.336 444.205 153.235 443.911 154.228C443.617 155.221 443.659 156.309 444.037 157.491C444.29 158.342 444.668 159.099 445.13 159.714C445.593 160.329 446.098 160.802 446.644 161.133C447.233 161.464 447.779 161.7 448.368 161.842C448.957 161.984 449.503 162.031 450.05 161.937C450.68 161.889 451.227 161.889 451.69 161.984C452.194 162.126 452.614 162.315 452.909 162.551C453.161 162.788 453.371 162.977 453.497 163.166C453.624 163.355 453.75 163.592 453.792 163.781C453.834 163.97 453.876 164.206 453.876 164.443C453.876 164.679 453.834 164.963 453.75 165.294C453.666 165.673 453.413 166.051 453.077 166.382C452.741 166.713 452.32 166.949 451.816 167.139C451.437 167.28 450.933 167.422 450.47 167.564C449.966 167.706 449.587 167.753 449.251 167.848C449.041 167.895 448.83 167.942 448.578 167.942L449.335 171.537C449.966 171.395 450.638 171.158 451.395 170.922C451.563 170.922 451.605 170.922 451.69 170.922ZM453.708 152.005C453.666 152.005 453.666 152.005 453.708 152.005C453.666 152.005 453.666 152.005 453.708 152.005Z" fill="#202D37"/>
<path d="M477.716 144.202C465.144 151.438 457.954 158.531 460.813 163.119C464.177 168.51 480.406 160.376 480.406 160.376C480.406 160.376 480.659 181.089 494.828 185.818" fill="#FFFEF2"/>
<path d="M494.828 187.426C494.702 187.426 494.534 187.426 494.408 187.379C482.214 183.312 479.608 168.651 479.061 162.787C474.1 165.057 462.916 169.361 459.594 164.064C458.753 162.693 458.501 161.132 458.879 159.43C460.183 153.471 469.475 147.087 477.043 142.736C477.758 142.31 478.641 142.641 479.019 143.445C479.397 144.249 479.103 145.242 478.388 145.668C464.514 153.613 462.159 158.484 461.781 160.234C461.612 160.99 461.696 161.605 462.075 162.173C463.883 165.105 473.763 161.936 479.86 158.862C480.322 158.626 480.827 158.673 481.247 158.957C481.668 159.241 481.92 159.761 481.92 160.328C481.92 160.517 482.341 179.859 495.29 184.21C496.089 184.494 496.51 185.392 496.3 186.291C496.047 186.953 495.459 187.426 494.828 187.426Z" fill="#202D37"/>
<path d="M549.571 261.531C548.814 261.531 548.183 260.916 548.099 260.065C545.577 235.426 533.51 190.358 522.242 171.347C521.485 170.07 520.98 169.597 520.77 169.456C520.35 170.023 519.803 171.962 519.551 172.955L519.467 173.239C516.65 183.548 509.418 201.992 492.852 209.653C492.39 210.268 491.633 213.483 491.717 218.969C491.801 224.266 492.6 226.867 492.978 227.292C495.249 228.806 499.075 232.116 499.285 234.954C499.411 236.751 498.781 249.188 498.654 251.647C498.612 252.546 497.898 253.255 497.099 253.208C496.3 253.161 495.669 252.357 495.711 251.458C496.006 245.831 496.468 236.467 496.384 235.285C496.3 234.481 494.324 232.022 491.465 230.13C488.059 227.86 488.858 215.044 488.9 214.902C489.32 208.423 490.708 207.099 491.675 206.626C507.19 199.533 514.001 182.035 516.692 172.293L516.776 172.009C517.491 169.408 518.289 166.524 520.392 166.145C522.284 165.814 523.797 167.942 524.722 169.55C537.336 190.973 548.73 237.271 551.043 259.734C551.127 260.633 550.538 261.484 549.739 261.578C549.655 261.531 549.613 261.531 549.571 261.531Z" fill="#202D37"/>
<path d="M598.301 519.834C598.301 519.834 598.427 527.826 594.475 539.318C589.009 555.255 575.681 577.955 543.222 595.5C499.579 619.098 411.159 603.492 389.505 574.786C383.115 566.321 378.237 558.045 374.832 548.965C370.333 537.048 368.399 523.807 369.029 507.16C369.534 493.588 371.72 477.792 375.546 458.64C375.967 456.559 376.429 454.478 376.892 452.492C390.388 395.932 428.145 366.706 468.844 360.984C478.178 359.66 489.783 360.416 502.27 363.396C531.365 370.395 564.917 389.831 584.174 424.637C593.886 442.182 599.941 463.652 599.941 489.379C612.344 502.1 639.631 507.397 644.088 506.924C648.503 506.498 642.827 523.665 598.301 519.834Z" fill="#FBD931"/>
<path d="M620.795 372.192C616.885 379.238 610.62 377.346 610.326 377.252C615.245 381.603 606.037 394.655 597.04 394.797C588.042 394.939 587.748 389.737 587.748 389.737C583.795 393.142 579.381 391.486 577.489 387.183C577.447 393.047 575.597 398.391 572.822 402.032C583.837 399.479 594.517 406.761 592.835 415.321C591.868 420.239 588.378 423.171 584.174 424.543C579.044 426.198 572.864 425.489 568.785 423.124L565.338 478.313C565.506 478.265 565.674 478.171 565.842 478.124C571.855 476.232 575.302 485.643 567.902 487.771C566.725 488.102 565.674 488.055 564.749 487.724L563.992 499.783L594.517 539.176C589.051 555.113 575.723 577.813 543.264 595.358C499.621 618.956 411.201 603.35 389.547 574.644C383.157 566.179 378.279 557.903 374.874 548.824C377.228 535.346 379.372 512.362 379.372 512.362C375.841 512.362 372.057 509.998 369.071 507.066C366.086 504.086 363.9 500.492 363.521 497.986C358.897 498.033 352.548 496.52 349.184 494.959C344.349 492.689 341.364 485.974 348.007 479.4L367.011 463.747C366.843 463.416 366.717 463.038 366.675 462.612C366.17 458.214 370.963 454.242 376.934 452.397C378.574 451.877 380.297 451.546 382.021 451.404L391.397 443.696C414.27 460.768 420.493 494.77 420.787 568.969C445.509 533.643 482.635 491.554 492.221 482.238C488.311 481.15 486.461 475.144 492.179 471.881C492.726 471.55 493.272 471.361 493.777 471.266C494.954 449.56 497.561 400.093 497.014 399.479C496.3 398.675 466.195 389.5 466.91 382.076C467.205 379.191 486.84 370.111 502.312 363.396C505.676 361.93 508.829 360.605 511.562 359.423C511.31 358.95 511.1 358.477 510.931 357.91C509.376 352.755 514.127 350.107 514.127 350.107C514.127 350.107 505.718 344.574 508.451 336.156C511.226 327.738 530.146 328.117 540.867 342.824C540.867 342.824 541.834 337.291 548.73 339.183C555.625 341.074 556.214 354.694 556.214 354.694C556.214 354.694 562.1 351.242 567.944 357.673C567.86 357.437 564.875 349.161 571.182 343.061C578.287 336.203 587.243 344.574 587.243 344.574C587.243 344.574 591.321 332.136 599.142 332.562C618.188 333.508 610.746 358.667 610.746 358.667C619.954 354.647 624.789 365.004 620.795 372.192Z" fill="#FFFEF2"/>
<path d="M363.185 499.783C358.013 499.783 351.454 497.939 348.553 496.615C345.442 495.149 343.213 492.217 342.709 488.906C342.331 486.353 342.751 482.427 346.955 478.266C347.544 477.651 348.511 477.746 349.016 478.408C349.562 479.117 349.478 480.157 348.89 480.725C346.367 483.231 345.232 485.832 345.61 488.339C345.946 490.514 347.502 492.548 349.646 493.541C354.902 496 364.909 497.513 367.221 495.669C369.66 493.73 367.6 489.332 367.558 489.285C367.179 488.481 367.431 487.487 368.146 487.015C368.861 486.589 369.744 486.873 370.164 487.677C371.342 490.089 372.603 495.432 368.945 498.364C367.684 499.358 365.581 499.783 363.185 499.783Z" fill="#202D37"/>
<path d="M388.581 452.681L393.458 437.075C378.995 435.751 357.51 415.747 349.731 408.322C341.953 400.898 330.559 388.129 308.569 388.413C308.569 388.413 294.064 417.26 296.376 442.135C296.376 442.135 308.233 445.399 319.417 453.627C338.589 467.72 348.386 495.527 376.976 490.041L383.704 467.389" fill="#06D188"/>
<path d="M511.982 376.779C511.141 376.212 510.889 374.982 511.394 374.084L513.748 369.78C514.253 368.835 515.346 368.551 516.145 369.118C516.986 369.686 517.238 370.915 516.733 371.814L514.379 376.117C513.916 377.063 512.823 377.347 511.982 376.779Z" fill="#202D37"/>
<path d="M523.923 382.36C523.082 381.793 522.83 380.563 523.334 379.664L525.689 375.361C526.193 374.415 527.286 374.131 528.085 374.699C528.926 375.266 529.178 376.496 528.674 377.394L526.319 381.698C525.857 382.596 524.764 382.927 523.923 382.36Z" fill="#202D37"/>
<path d="M350.277 445.729C349.773 447.195 349.058 448.283 348.175 448.945C347.292 449.607 346.157 449.844 344.77 449.702L343.424 453.532C343.382 453.627 343.298 453.721 343.214 453.769C343.13 453.816 343.004 453.816 342.92 453.769L338.421 451.735C338.337 451.688 338.253 451.593 338.21 451.499C338.168 451.404 338.168 451.262 338.21 451.168L339.43 447.763C338.589 447.337 337.874 446.912 337.201 446.533C337.117 446.486 337.075 446.391 337.033 446.297C336.991 446.202 336.991 446.06 337.033 445.966L338.841 442.041C338.883 441.899 338.967 441.851 339.093 441.804C339.22 441.757 339.304 441.804 339.43 441.899C339.682 442.088 339.934 442.277 340.229 442.466C340.481 442.655 340.859 442.892 341.322 443.176C341.784 443.459 342.205 443.696 342.583 443.838C343.004 444.027 343.424 444.169 343.76 444.169C344.097 444.169 344.391 444.121 344.601 443.932C344.812 443.79 344.938 443.648 345.064 443.507C345.19 443.365 345.232 443.223 345.274 443.128C345.316 442.986 345.358 442.844 345.358 442.655C345.358 442.466 345.358 442.23 345.274 441.899C345.232 441.568 345.064 441.237 344.77 440.811C344.517 440.433 344.139 440.054 343.676 439.676C343.13 439.25 342.667 438.73 342.289 438.163C341.868 437.548 341.532 436.886 341.28 436.129C341.027 435.373 340.901 434.521 340.901 433.575C340.901 432.63 341.07 431.684 341.406 430.738C341.868 429.414 342.583 428.421 343.508 427.759C344.433 427.097 345.568 426.813 346.872 426.907L348.259 422.935C348.301 422.84 348.385 422.746 348.469 422.699C348.554 422.651 348.68 422.651 348.764 422.699L353.263 424.732C353.347 424.779 353.431 424.874 353.473 424.968C353.515 425.063 353.515 425.205 353.473 425.3L352.254 428.704C353.052 429.13 353.809 429.556 354.566 429.981C354.65 430.029 354.692 430.123 354.734 430.218C354.776 430.312 354.776 430.454 354.734 430.549L352.926 434.474C352.884 434.569 352.8 434.663 352.674 434.71C352.548 434.758 352.464 434.71 352.38 434.663C351.244 433.812 350.151 433.103 349.142 432.63C348.722 432.44 348.343 432.299 348.007 432.299C347.671 432.299 347.376 432.346 347.166 432.535C346.956 432.677 346.788 432.819 346.704 432.961C346.619 433.103 346.535 433.244 346.493 433.386C346.451 433.528 346.409 433.67 346.409 433.859C346.409 434.048 346.409 434.285 346.493 434.616C346.535 434.947 346.704 435.278 346.998 435.704C347.25 436.082 347.629 436.508 348.091 436.839C348.596 437.264 349.058 437.784 349.479 438.399C349.899 439.014 350.235 439.676 350.488 440.433C350.74 441.189 350.866 442.041 350.866 442.986C350.824 443.838 350.656 444.783 350.277 445.729Z" fill="#202D37"/>
<path d="M343.046 454.573C342.92 454.573 342.793 454.526 342.667 454.478L338.169 452.445C337.916 452.35 337.706 452.114 337.622 451.83C337.496 451.546 337.496 451.262 337.622 450.979L338.631 448.189C338 447.858 337.412 447.526 336.907 447.195C336.697 447.054 336.529 446.817 336.445 446.533C336.361 446.25 336.361 445.966 336.487 445.729C336.487 445.729 336.487 445.682 336.529 445.682L338.337 441.757C338.463 441.473 338.715 441.237 339.009 441.189C339.304 441.095 339.598 441.189 339.85 441.379C340.103 441.568 340.355 441.757 340.607 441.946C340.859 442.135 341.238 442.372 341.658 442.608C342.079 442.845 342.499 443.081 342.836 443.27C343.214 443.459 343.508 443.554 343.803 443.554C344.097 443.554 344.223 443.507 344.265 443.459C344.433 443.318 344.559 443.223 344.601 443.176C344.686 443.081 344.728 442.987 344.728 442.987C344.728 442.939 344.77 442.845 344.77 442.703C344.77 442.608 344.77 442.466 344.728 442.135C344.686 441.993 344.601 441.757 344.349 441.379C344.139 441.048 343.803 440.717 343.382 440.386C342.793 439.913 342.289 439.345 341.826 438.683C341.406 438.021 341.028 437.312 340.733 436.46C340.439 435.609 340.313 434.663 340.313 433.623C340.313 432.583 340.523 431.542 340.859 430.502C341.364 429.036 342.205 427.901 343.214 427.191C344.139 426.529 345.232 426.246 346.493 426.198L347.713 422.699C347.797 422.415 348.007 422.226 348.217 422.084C348.47 421.942 348.764 421.942 349.016 422.037L353.557 424.07C353.809 424.165 354.019 424.401 354.104 424.685C354.23 424.969 354.23 425.3 354.104 425.583L353.095 428.374C353.725 428.705 354.314 429.036 354.902 429.414C355.113 429.556 355.281 429.792 355.365 430.029C355.449 430.36 355.449 430.644 355.323 430.975L353.515 434.9C353.389 435.183 353.179 435.373 352.884 435.467C352.59 435.562 352.296 435.515 352.043 435.325C350.95 434.474 349.899 433.859 348.932 433.386C348.596 433.197 348.259 433.15 348.007 433.15C347.797 433.15 347.629 433.197 347.503 433.245C347.292 433.386 347.208 433.481 347.166 433.528C347.124 433.576 347.082 433.67 347.04 433.717C347.04 433.765 346.998 433.812 346.998 433.954C346.998 434.001 346.998 434.19 347.082 434.521C347.124 434.663 347.208 434.947 347.46 435.325C347.671 435.656 348.007 435.987 348.427 436.318C348.974 436.791 349.521 437.359 349.941 438.021C350.404 438.683 350.782 439.44 351.034 440.244C351.329 441.095 351.455 442.041 351.455 443.034C351.455 444.074 351.245 445.067 350.866 446.108C350.32 447.716 349.521 448.898 348.512 449.655C347.629 450.317 346.493 450.648 345.19 450.6L344.013 453.958C343.929 454.242 343.718 454.478 343.466 454.573C343.34 454.526 343.214 454.573 343.046 454.573ZM338.883 451.215L342.962 453.012L344.223 449.418C344.307 449.134 344.601 448.945 344.854 448.992C346.073 449.134 347.082 448.898 347.839 448.33C348.638 447.763 349.268 446.77 349.731 445.446C350.025 444.594 350.193 443.696 350.193 442.845C350.193 441.993 350.109 441.237 349.857 440.575C349.605 439.865 349.31 439.251 348.932 438.73C348.554 438.163 348.133 437.69 347.671 437.312C347.166 436.933 346.746 436.46 346.451 436.035C346.115 435.562 345.905 435.089 345.821 434.663C345.737 434.285 345.737 433.954 345.737 433.717C345.737 433.434 345.779 433.197 345.863 433.008C345.947 432.772 346.073 432.583 346.199 432.393C346.325 432.204 346.536 432.015 346.788 431.826C347.082 431.589 347.503 431.495 347.965 431.495C348.385 431.495 348.89 431.637 349.353 431.873C350.32 432.346 351.371 432.961 352.464 433.765L354.02 430.36C353.347 429.981 352.674 429.603 351.959 429.225C351.665 429.083 351.497 428.657 351.623 428.326L352.758 425.158L348.68 423.313L347.376 427.002C347.292 427.286 347.04 427.475 346.746 427.428C345.568 427.381 344.559 427.617 343.761 428.184C342.92 428.752 342.331 429.603 341.911 430.833C341.616 431.684 341.448 432.583 341.448 433.434C341.448 434.285 341.532 435.042 341.784 435.704C342.037 436.413 342.331 437.028 342.709 437.595C343.088 438.116 343.508 438.588 343.971 438.967C344.475 439.392 344.896 439.818 345.19 440.244C345.526 440.717 345.737 441.189 345.779 441.615C345.863 441.993 345.863 442.277 345.863 442.561C345.863 442.845 345.821 443.081 345.737 443.27C345.653 443.459 345.568 443.649 345.4 443.885C345.274 444.074 345.064 444.263 344.812 444.453C344.517 444.689 344.139 444.784 343.634 444.784C343.214 444.784 342.709 444.642 342.205 444.405C341.784 444.216 341.364 443.98 340.901 443.696C340.439 443.412 340.103 443.176 339.808 442.987C339.598 442.845 339.388 442.703 339.22 442.561L337.664 446.013C338.253 446.344 338.925 446.723 339.64 447.101C339.934 447.243 340.103 447.668 339.976 447.999L338.883 451.215Z" fill="#202D37"/>
<path d="M396.106 499.027C385.343 494.345 380.886 482.617 384.712 467.673C384.712 467.673 367.347 468.997 366.591 462.707C365.624 454.431 383.577 447.621 392.28 453.864" fill="#FFFEF2"/>
<path d="M396.106 500.682C395.938 500.682 395.77 500.634 395.56 500.587C384.586 495.811 379.793 483.988 382.778 469.422C377.523 469.611 365.918 469.328 365.161 462.943C364.783 459.728 366.507 456.559 370.039 454.053C376.135 449.702 386.688 447.858 393.121 452.492C393.794 452.965 394.004 454.005 393.584 454.762C393.163 455.519 392.238 455.755 391.566 455.282C386.352 451.546 376.892 453.107 371.636 456.843C370.207 457.883 367.81 460.011 368.104 462.518C368.483 465.592 377.943 466.538 384.67 466.017C385.133 465.97 385.595 466.207 385.932 466.632C386.226 467.058 386.352 467.625 386.184 468.145C382.61 482.144 386.52 493.115 396.695 497.513C397.452 497.844 397.83 498.79 397.536 499.641C397.242 500.256 396.695 500.682 396.106 500.682Z" fill="#202D37"/>
<path d="M420.619 597.155C419.778 597.155 419.147 596.399 419.147 595.5C420.072 507.019 416.162 464.315 390.515 445.162C389.842 444.642 389.674 443.649 390.094 442.845C390.557 442.088 391.44 441.899 392.154 442.372C405.23 452.161 413.009 467.341 417.339 491.602C421.291 513.734 422.679 543.811 422.09 595.5C422.09 596.446 421.46 597.155 420.619 597.155Z" fill="#202D37"/>
<path d="M374.327 553.364C374.201 553.364 374.117 553.364 373.991 553.316C373.192 553.127 372.687 552.229 372.856 551.33C375 540.595 377.06 520.023 377.649 514.017C370.375 512.788 362.807 503.897 361.966 498.364C361.84 497.466 362.386 496.614 363.185 496.473C363.984 496.331 364.741 496.945 364.867 497.844C365.456 501.911 372.814 510.849 379.246 510.849C379.667 510.849 380.045 511.038 380.34 511.416C380.634 511.747 380.76 512.22 380.718 512.693C380.634 513.781 378.237 539.271 375.673 552.087C375.589 552.843 375 553.364 374.327 553.364Z" fill="#202D37"/>
<path d="M594.727 541.352C594.306 541.352 593.928 541.163 593.633 540.785L562.857 501.013C562.604 500.682 562.478 500.256 562.478 499.831L567.271 423.125C567.313 422.557 567.608 422.084 568.028 421.801C568.449 421.517 568.995 421.517 569.416 421.753C574.041 424.449 581.146 424.638 585.939 422.132C588.924 420.571 590.732 418.206 591.363 415.038C591.994 411.822 590.438 409.316 588.967 407.802C585.645 404.35 578.75 401.749 571.35 404.208C570.551 404.492 569.752 403.972 569.5 403.073C569.247 402.175 569.71 401.276 570.509 400.992C577.909 398.533 586.149 400.283 590.985 405.343C593.844 408.323 594.979 412.011 594.222 415.747C593.381 419.862 590.943 423.125 587.159 425.111C582.197 427.712 575.344 427.854 570.046 425.631L565.463 499.31L595.82 538.562C596.366 539.271 596.282 540.312 595.694 540.879C595.441 541.21 595.063 541.352 594.727 541.352Z" fill="#202D37"/>
<path d="M583.795 415.558C583.501 415.558 583.165 415.463 582.912 415.227C582.282 414.754 577.278 412.436 572.527 414.47C571.77 414.801 570.929 414.375 570.635 413.524C570.341 412.673 570.719 411.727 571.476 411.396C577.53 408.795 583.753 411.68 584.762 412.626C585.393 413.193 585.477 414.233 584.93 414.943C584.636 415.368 584.216 415.558 583.795 415.558ZM582.828 415.179C582.87 415.179 582.87 415.179 582.828 415.179C582.87 415.179 582.87 415.179 582.828 415.179Z" fill="#202D37"/>
<path d="M517.238 584.86C511.772 584.86 507.147 582.873 503.784 578.995C498.612 573.037 497.561 564.099 498.276 557.715C498.36 556.816 499.117 556.154 499.916 556.296C500.714 556.39 501.303 557.242 501.177 558.14C500.546 563.768 501.429 571.571 505.886 576.725C509.165 580.509 513.79 582.117 519.635 581.455C520.434 581.36 521.148 582.022 521.232 582.921C521.316 583.819 520.728 584.623 519.929 584.718C519.046 584.812 518.121 584.86 517.238 584.86Z" fill="#202D37"/>
<path d="M444.963 605.053C444.752 605.053 444.5 605.005 444.29 604.863C443.575 604.438 443.281 603.445 443.659 602.641C450.681 587.413 451.438 585.38 452.405 578.522C452.909 574.928 453.077 571.098 453.288 566.983C453.876 554.12 454.549 539.507 465.985 526.881C466.574 526.266 467.499 526.266 468.045 526.928C468.634 527.59 468.592 528.63 468.003 529.245C457.366 540.973 456.735 554.877 456.189 567.125C455.978 571.287 455.81 575.259 455.264 578.995C454.213 586.515 453.119 589.163 446.224 604.107C446.014 604.722 445.509 605.053 444.963 605.053Z" fill="#202D37"/>
<path d="M420.745 570.672C420.409 570.672 420.114 570.578 419.82 570.341C419.189 569.774 419.063 568.733 419.568 568.024C444.374 532.556 482.72 489.095 491.717 480.536C493.357 450.979 495.627 407.424 495.543 400.661C494.87 400.377 493.819 399.999 492.768 399.621C475.908 393.331 464.808 387.94 465.355 381.934C465.523 380.373 465.733 377.961 493.315 365.571C506.559 359.613 519.929 354.174 520.055 354.127C520.812 353.796 521.653 354.269 521.948 355.12C522.242 355.971 521.821 356.917 521.065 357.248C496.763 367.132 470.611 379.191 468.256 382.501C468.34 383.258 469.307 385.623 477.338 389.69C482.93 392.527 489.657 395.033 493.693 396.5C497.183 397.824 497.603 397.966 497.982 398.391C498.57 399.053 498.697 399.195 498.108 412.768C497.814 419.578 497.351 429.036 496.763 440.858C495.753 461.004 494.618 481.292 494.618 481.481C494.576 481.954 494.408 482.38 494.072 482.664C486.167 489.899 447.065 534.116 421.88 570.105C421.628 570.483 421.208 570.672 420.745 570.672Z" fill="#202D37"/>
<path d="M515.809 410.261C515.094 410.261 514.463 410.214 513.833 410.12C513.034 409.978 512.487 409.126 512.613 408.228C512.739 407.329 513.496 406.715 514.295 406.856C520.392 407.991 533.93 401.702 538.008 395.885C538.513 395.176 539.438 395.034 540.069 395.601C540.699 396.169 540.825 397.209 540.321 397.918C535.99 404.114 523.377 410.261 515.809 410.261Z" fill="#202D37"/>
<path d="M519.803 404.444C519.635 404.444 519.509 404.397 519.34 404.35C518.584 404.066 518.163 403.12 518.415 402.269C519.298 399.242 521.569 396.783 524.47 395.695C527.665 394.466 531.197 395.081 534.182 397.351C534.855 397.871 535.023 398.911 534.561 399.668C534.098 400.425 533.173 400.614 532.501 400.093C530.314 398.391 527.707 397.965 525.395 398.817C523.377 399.573 521.779 401.276 521.19 403.309C521.022 403.971 520.434 404.444 519.803 404.444Z" fill="#202D37"/>
<path d="M529.095 417.638C526.109 417.638 523.04 416.456 520.56 414.233C519.929 413.666 519.845 412.625 520.349 411.916C520.854 411.207 521.779 411.112 522.409 411.68C525.269 414.281 529.179 415.085 532.374 413.666C535.654 412.247 537.798 408.7 538.471 403.498C538.597 402.6 539.354 401.985 540.152 402.127C540.951 402.269 541.498 403.12 541.372 404.018C540.531 410.403 537.714 414.943 533.425 416.787C532.038 417.355 530.566 417.638 529.095 417.638Z" fill="#202D37"/>
<path d="M508.872 521.49C508.031 521.49 507.19 521.206 506.349 520.686C500.337 516.903 494.24 500.445 492.012 490.514C491.801 489.616 492.306 488.717 493.063 488.481C493.862 488.244 494.66 488.812 494.871 489.663C497.351 500.634 503.364 514.964 507.778 517.754C508.367 518.132 508.83 518.227 509.208 518.085C510.722 517.565 513.791 515.768 517.701 513.545C526.741 508.343 541.877 499.689 558.485 494.392C559.284 494.156 560.082 494.676 560.293 495.527C560.503 496.426 560.04 497.324 559.284 497.561C542.97 502.763 527.96 511.322 519.047 516.477C514.842 518.889 511.815 520.639 510.091 521.206C509.67 521.442 509.292 521.49 508.872 521.49Z" fill="#202D37"/>
<path d="M540.909 482.096C546.879 481.245 548.939 491.128 541.582 491.932C535.443 492.642 533.341 483.184 540.909 482.096Z" fill="#FFFEF2"/>
<path d="M540.993 493.635C537.377 493.635 534.939 490.703 534.644 487.629C534.35 484.508 536.116 481.103 540.741 480.441C543.095 480.11 545.24 481.103 546.585 483.137C547.846 485.076 548.141 487.535 547.3 489.616C546.795 490.94 545.366 493.162 541.75 493.588C541.498 493.635 541.245 493.635 540.993 493.635ZM541.077 483.751C538.723 484.082 537.335 485.407 537.545 487.251C537.713 488.906 539.143 490.561 541.456 490.278C543.053 490.088 544.188 489.379 544.609 488.291C544.987 487.298 544.819 486.069 544.188 485.123C543.81 484.508 542.843 483.515 541.077 483.751Z" fill="#202D37"/>
<path d="M529.094 484.46C535.065 483.609 537.125 493.493 529.767 494.297C523.671 495.006 521.568 485.548 529.094 484.46Z" fill="#FFFEF2"/>
<path d="M529.179 496C525.563 496 523.124 493.067 522.83 489.994C522.535 486.872 524.301 483.467 528.926 482.805C531.281 482.474 533.425 483.467 534.771 485.501C536.032 487.44 536.326 489.899 535.485 491.98C534.981 493.304 533.551 495.527 529.935 495.952C529.683 496 529.431 496 529.179 496ZM529.305 486.116C526.95 486.447 525.563 487.771 525.773 489.615C525.941 491.27 527.371 492.926 529.683 492.642C531.281 492.453 532.416 491.743 532.837 490.656C533.215 489.662 533.047 488.433 532.416 487.487C531.996 486.872 531.071 485.879 529.305 486.116Z" fill="#202D37"/>
<path d="M517.154 483.704C523.04 482.758 525.016 494.155 517.827 495.101C511.772 495.858 509.712 484.934 517.154 483.704Z" fill="#FFFEF2"/>
<path d="M517.196 496.804C513.622 496.804 511.351 493.588 510.973 490.325C510.595 486.873 512.276 482.853 516.943 482.096C519.088 481.765 521.106 482.664 522.451 484.603C523.965 486.825 524.343 489.994 523.418 492.5C522.535 494.912 520.601 496.425 517.995 496.756C517.7 496.756 517.448 496.804 517.196 496.804ZM517.826 485.312C517.658 485.312 517.532 485.312 517.364 485.359C514.463 485.832 513.664 488.007 513.874 489.899C514.084 491.885 515.472 493.73 517.658 493.446C519.172 493.257 520.223 492.453 520.685 491.176C521.232 489.757 520.98 487.866 520.097 486.589C519.676 486.021 518.962 485.312 517.826 485.312Z" fill="#202D37"/>
<path d="M507.357 480.346C513.033 483.893 508.745 494.486 501.933 489.994C496.215 486.211 500.168 475.901 507.357 480.346Z" fill="#FFFEF2"/>
<path d="M505.171 492.736C504.036 492.736 502.691 492.405 501.219 491.412C497.435 488.906 497.057 484.224 498.654 481.103C500.21 478.029 503.742 476.185 508.114 478.928C510.259 480.252 511.478 482.569 511.52 485.217C511.562 487.96 510.259 490.561 508.241 491.885C507.526 492.264 506.475 492.736 505.171 492.736ZM503.994 480.914C502.649 480.914 501.682 481.718 501.177 482.758C500.294 484.508 500.504 487.156 502.691 488.575C504.204 489.568 505.592 489.71 506.727 489C507.82 488.291 508.535 486.778 508.535 485.264C508.535 484.413 508.283 482.853 506.685 481.86C505.634 481.197 504.751 480.914 503.994 480.914Z" fill="#202D37"/>
<path d="M492.137 471.929C497.981 468.571 503.363 477.887 496.089 481.765C490.035 485.028 484.695 476.185 492.137 471.929Z" fill="#FFFEF2"/>
<path d="M493.482 484.13C490.876 484.13 488.647 482.427 487.638 480.157C486.335 477.178 487.007 473.016 491.464 470.415C493.735 469.091 496.215 469.233 498.191 470.699C500.083 472.118 501.177 474.53 501.05 476.942C500.966 478.455 500.252 481.292 496.72 483.184C495.627 483.846 494.491 484.13 493.482 484.13ZM494.66 472.875C494.113 472.875 493.482 473.016 492.81 473.395C490.413 474.766 489.446 476.8 490.287 478.691C491.044 480.394 493.104 481.529 495.459 480.252C497.098 479.353 498.023 478.124 498.107 476.752C498.191 475.523 497.561 474.246 496.552 473.489C496.173 473.206 495.501 472.875 494.66 472.875Z" fill="#202D37"/>
<path d="M553.901 479.589C560.671 478.643 562.983 489.804 554.658 490.703C547.721 491.459 545.324 480.772 553.901 479.589Z" fill="#FFFEF2"/>
<path d="M553.985 492.358C549.991 492.358 547.3 489.142 547.006 485.737C546.669 482.332 548.646 478.596 553.733 477.887L553.901 479.542L553.733 477.887C556.34 477.509 558.694 478.596 560.166 480.866C561.553 482.995 561.848 485.69 560.965 487.96C560.418 489.379 558.863 491.838 554.826 492.311C554.532 492.358 554.238 492.358 553.985 492.358ZM554.069 481.197C551.294 481.576 549.655 483.184 549.907 485.406C550.117 487.393 551.799 489.331 554.532 489.048C556.424 488.859 557.727 488.007 558.274 486.636C558.736 485.454 558.568 483.988 557.811 482.853C557.307 482.096 556.172 480.914 554.069 481.197Z" fill="#202D37"/>
<path d="M565.8 478.266C571.812 476.374 575.26 485.785 567.86 487.913C561.679 489.663 558.19 480.677 565.8 478.266Z" fill="#FFFEF2"/>
<path d="M566.304 489.757C563.193 489.757 560.838 487.487 560.166 484.792C559.451 481.765 560.796 478.124 565.421 476.658C567.776 475.901 570.172 476.563 571.812 478.36C573.284 480.016 573.914 482.38 573.368 484.555C573.031 485.927 571.896 488.433 568.238 489.521C567.566 489.663 566.893 489.757 566.304 489.757ZM567.397 479.637C567.019 479.637 566.641 479.684 566.22 479.826C563.824 480.583 562.604 482.144 563.025 483.941C563.403 485.596 565.127 486.967 567.524 486.258C569.163 485.785 570.257 484.839 570.551 483.657C570.803 482.664 570.467 481.529 569.752 480.678C569.121 480.016 568.28 479.637 567.397 479.637Z" fill="#202D37"/>
<path d="M587.242 344.574C587.242 344.574 591.321 332.137 599.141 332.562C618.188 333.508 610.746 358.667 610.746 358.667C619.954 354.647 624.831 365.004 620.794 372.192C616.8 379.38 610.325 377.252 610.325 377.252C615.244 381.603 606.037 394.655 597.039 394.844C588.041 395.034 587.747 389.784 587.747 389.784C583.795 393.189 579.38 391.534 577.488 387.231C577.404 401.465 566.64 412.389 557.979 404.492C548.561 395.885 551.21 374.746 551.21 374.746C548.477 376.306 546.585 372.949 549.444 370.064C540.783 376.637 531.701 370.159 537.461 361.362C531.743 367.227 513.706 367.321 510.847 357.957C509.291 352.803 514.042 350.154 514.042 350.154C514.042 350.154 505.633 344.621 508.366 336.204C511.141 327.786 530.061 328.164 540.783 342.872C540.783 342.872 541.75 337.339 548.645 339.23C555.541 341.122 556.129 354.742 556.129 354.742C556.129 354.742 562.058 351.289 567.86 357.721C567.86 357.721 564.706 349.303 571.097 343.108C578.245 336.204 587.242 344.574 587.242 344.574Z" fill="#202D37"/>
<path d="M564.16 408.843C561.679 408.843 559.241 407.802 557.012 405.816C548.856 398.344 549.108 382.691 549.528 376.827C548.561 376.732 547.678 376.212 547.09 375.266C546.795 374.793 546.627 374.226 546.543 373.611C542.128 375.361 538.092 374.226 535.948 371.719C534.728 370.253 533.888 368.03 534.266 365.335C529.767 367.274 523.544 367.747 518.331 366.233C513.706 364.909 510.553 362.166 509.459 358.525C508.324 354.789 509.838 351.904 511.52 350.154C508.408 347.317 504.919 342.02 507.021 335.636C508.072 332.373 511.015 330.15 515.22 329.346C522.199 328.022 532.794 330.86 540.447 339.94C540.825 339.372 541.329 338.852 542.002 338.379C543.81 337.102 546.165 336.818 549.024 337.622C555.162 339.278 556.928 348.31 557.433 352.519C559.325 351.999 562.352 351.762 565.632 353.796C565.463 350.154 566.388 345.52 570.172 341.879C575.722 336.535 582.618 339.183 586.57 342.115C588.168 338.379 592.33 330.623 599.141 331.002C604.565 331.285 608.559 333.413 610.956 337.386C614.656 343.392 613.647 351.951 612.764 356.397C616.212 355.735 619.365 356.917 621.425 359.707C624.116 363.349 624.326 368.882 621.972 373.138C619.449 377.678 615.791 379.144 612.932 379.286C613.184 380.563 613.058 382.029 612.596 383.589C610.788 389.642 603.892 396.452 596.913 396.594C590.564 396.689 587.957 394.277 586.864 392.338C585.14 393.331 583.248 393.615 581.482 393.142C580.389 392.858 579.38 392.291 578.455 391.534C577.404 398.77 573.704 405.107 568.785 407.708C567.355 408.417 565.758 408.843 564.16 408.843ZM551.21 373.091C551.504 373.091 551.799 373.185 552.051 373.374C552.513 373.753 552.724 374.32 552.64 374.935C552.598 375.124 550.201 395.27 558.862 403.168C562.31 406.336 565.547 405.674 567.65 404.539C572.485 401.985 575.933 394.844 575.933 387.183C575.933 386.427 576.395 385.765 577.068 385.575C577.74 385.386 578.413 385.765 578.708 386.427C579.464 388.129 580.768 389.359 582.239 389.737C583.753 390.115 585.309 389.642 586.78 388.366C587.243 387.987 587.831 387.845 588.336 388.129C588.84 388.413 589.135 388.933 589.177 389.548C589.219 389.879 589.892 393.237 596.955 393.095C602.463 393 608.433 387.231 609.863 382.36C610.409 380.563 610.241 379.238 609.358 378.482C608.812 378.009 608.644 377.11 608.98 376.401C609.316 375.692 610.031 375.361 610.704 375.55C610.914 375.597 616.17 377.205 619.533 371.199C621.257 368.125 621.089 364.2 619.197 361.599C617.431 359.187 614.53 358.62 611.25 360.086C610.704 360.322 610.115 360.18 609.695 359.754C609.274 359.329 609.148 358.62 609.316 358.052C609.358 357.91 612.806 345.993 608.559 339.041C606.667 335.967 603.472 334.312 599.015 334.076C598.931 334.076 598.805 334.076 598.721 334.076C592.246 334.076 588.588 344.905 588.546 345.047C588.378 345.567 587.999 345.946 587.537 346.087C587.074 346.229 586.57 346.087 586.234 345.756C585.897 345.425 578.119 338.332 572.064 344.196C566.556 349.492 569.121 356.633 569.205 356.917C569.458 357.626 569.247 358.478 568.659 358.903C568.07 359.329 567.313 359.282 566.809 358.714C561.889 353.276 557.012 355.924 556.802 356.019C556.34 356.255 555.835 356.255 555.415 355.971C554.994 355.687 554.7 355.167 554.7 354.647C554.532 351.195 553.102 341.973 548.351 340.649C546.333 340.081 544.735 340.223 543.642 340.98C542.507 341.737 542.254 343.013 542.254 343.061C542.128 343.676 541.708 344.196 541.161 344.338C540.615 344.48 540.026 344.243 539.69 343.77C532.71 334.217 522.367 331.191 515.724 332.468C512.613 333.035 510.468 334.596 509.796 336.677C507.483 343.723 514.757 348.594 514.841 348.641C515.304 348.972 515.598 349.54 515.556 350.107C515.514 350.675 515.22 351.242 514.757 351.526C514.379 351.715 511.183 353.701 512.276 357.343C513.328 360.795 516.985 362.308 519.088 362.923C525.184 364.673 533.299 363.349 536.494 360.086C537.041 359.518 537.924 359.518 538.47 360.086C539.017 360.653 539.101 361.599 538.681 362.308C536.873 365.098 536.663 367.652 538.092 369.355C539.942 371.483 544.231 372.003 548.603 368.645C549.234 368.172 550.117 368.314 550.579 369.024C551.042 369.733 550.958 370.679 550.369 371.294C549.36 372.287 549.36 373.091 549.486 373.327C549.612 373.516 549.991 373.516 550.495 373.232C550.748 373.138 550.958 373.091 551.21 373.091Z" fill="#202D37"/>
<path d="M61.1758 234.906C60.8815 234.906 60.5872 234.812 60.3349 234.623C60.2508 234.575 53.4395 229.421 48.6464 229.184C47.8475 229.137 47.2168 228.38 47.2589 227.482C47.3009 226.583 47.9737 225.874 48.7725 225.921C54.4065 226.205 61.6803 231.691 61.9746 231.927C62.6474 232.447 62.8155 233.488 62.353 234.244C62.1008 234.67 61.6383 234.906 61.1758 234.906Z" fill="#202D37"/>
<path d="M129.961 170.591C147.872 174.327 143.289 189.98 129.751 197.83C115.96 205.775 92.9191 201.614 92.9191 201.614C92.9191 201.614 92.5827 212.585 82.4078 221.003C72.2329 229.421 55.9195 223.226 52.64 218.26C45.4503 207.383 53.3127 186.623 72.1068 194.898C72.1068 194.898 64.5387 173.57 82.4078 167.422C97.4179 162.268 101.328 176.124 112.554 178.867C138.874 185.393 127.144 169.976 129.961 170.591Z" fill="#202D37"/>
<path d="M70.0471 226.772C61.7642 226.772 53.7756 222.752 51.4211 219.206C47.3848 213.058 47.511 204.072 51.7995 197.783C55.7938 191.919 62.3949 189.98 69.8369 192.297C68.996 188.466 68.1971 181.798 70.7198 175.84C72.78 171.063 76.522 167.706 81.9458 165.814C91.9946 162.362 97.5025 166.902 102.8 171.253C105.911 173.806 108.897 176.265 112.807 177.211C123.949 179.954 127.228 178.488 128.195 177.353C129.036 176.36 128.742 174.705 128.321 172.813C128.027 171.489 127.733 170.354 128.49 169.408C128.7 169.172 129.246 168.604 130.214 168.841C140.43 170.969 142.659 176.644 143.079 179.859C143.962 186.528 138.833 194.283 130.382 199.154C118.231 206.153 99.6047 204.12 94.1389 203.316C93.5923 206.957 91.448 215.328 83.2072 222.185C79.339 225.543 74.63 226.772 70.0471 226.772ZM63.9085 194.662C59.8722 194.662 56.4665 196.411 54.1541 199.816C50.7064 204.876 50.5802 212.348 53.8177 217.267C56.8029 221.759 72.3175 227.292 81.5254 219.678C91.0276 211.828 91.448 201.661 91.448 201.566C91.448 201.093 91.6582 200.668 91.9946 200.336C92.3309 200.053 92.7514 199.911 93.1718 199.958C93.3821 200.005 115.876 203.978 129.12 196.364C136.352 192.202 140.893 185.676 140.22 180.474C139.758 176.833 136.604 174.09 131.307 172.624C131.769 174.61 132.232 177.542 130.34 179.765C127.817 182.744 122.057 182.981 112.218 180.569C107.677 179.434 104.356 176.691 101.118 174.043C95.9468 169.786 91.49 166.098 82.8708 169.077C78.2879 170.638 75.0925 173.428 73.4527 177.353C70.2573 184.872 73.4948 194.236 73.5368 194.331C73.747 194.945 73.6209 195.655 73.2005 196.128C72.78 196.6 72.1493 196.742 71.6027 196.506C68.8278 195.229 66.263 194.662 63.9085 194.662Z" fill="#202D37"/>
<path d="M147.957 391.96C147.284 391.96 146.653 391.44 146.527 390.636C142.743 369.875 130.676 341.406 130.55 341.122C130.424 340.886 130.382 340.602 130.424 340.318L133.955 256.471C133.998 255.951 134.208 255.478 134.586 255.195C134.965 254.911 135.427 254.816 135.848 254.958C147.116 258.552 160.318 261.91 163.555 261.532C163.135 258.978 159.561 250.324 150.774 234.859C141.986 219.395 132.148 204.593 124.453 195.277C123.907 194.615 123.949 193.574 124.537 192.96C125.126 192.345 126.051 192.392 126.598 193.054C134.418 202.56 144.425 217.551 153.296 233.204C156.534 238.879 167.045 257.843 166.54 262.572C166.414 263.565 165.91 264.085 165.615 264.322C164.817 264.889 163.177 266.071 148.671 262.241C143.92 260.964 139.295 259.593 136.857 258.836L133.409 340.224C134.88 343.723 145.854 370.301 149.47 390.116C149.638 391.014 149.134 391.865 148.335 392.055C148.125 391.96 148.041 391.96 147.957 391.96Z" fill="#202D37"/>
<path d="M103.851 331.805C84.4681 331.805 65.716 326.745 57.7695 318.186C57.1809 317.571 57.1809 316.483 57.7275 315.868C58.274 315.206 59.2411 315.206 59.7877 315.821C64.6649 321.07 74.6296 325.232 87.159 327.265C100.025 329.346 114.278 328.921 126.261 326.083C127.06 325.894 127.817 326.462 127.985 327.36C128.153 328.259 127.648 329.11 126.849 329.299C119.534 331.001 111.629 331.805 103.851 331.805Z" fill="#202D37"/>
<path d="M78.9612 356.728C73.5795 356.728 67.9875 348.878 58.8637 335.447C58.3592 334.737 58.4853 333.697 59.158 333.13C59.7887 332.562 60.7137 332.704 61.2182 333.461C69.6272 345.898 75.4715 353.985 79.4237 353.417C82.5351 352.945 92.8361 342.966 97.7974 338.142C99.9837 336.014 101.581 334.501 102.422 333.792C107.384 329.772 111.925 334.312 116.087 339.798C117.685 341.926 122.604 348.357 125.926 347.553C128.154 346.986 129.625 343.108 130.424 339.94C130.635 339.041 131.475 338.568 132.232 338.805C133.031 339.041 133.452 339.987 133.241 340.838C131.728 346.797 129.541 350.012 126.556 350.769C122.057 351.857 117.39 346.655 113.817 341.973C108.014 334.359 105.828 335.069 104.104 336.487C103.389 337.055 101.666 338.71 99.6894 340.649C91.2804 348.783 83.4601 356.16 79.7601 356.68C79.5078 356.728 79.2556 356.728 78.9612 356.728Z" fill="#202D37"/>
<path d="M106.416 356.775C106.248 356.775 106.038 356.775 105.87 356.728C102.422 356.018 98.9324 351.005 95.5688 341.784C95.2745 340.932 95.6109 339.987 96.3677 339.608C97.1245 339.277 97.9654 339.656 98.3017 340.507C102.464 351.809 105.576 353.275 106.416 353.465C107.972 353.796 113.48 346.938 115.54 342.635C115.919 341.831 116.802 341.5 117.516 341.973C118.231 342.398 118.525 343.392 118.105 344.196C117.348 345.803 111.041 356.775 106.416 356.775Z" fill="#202D37"/>
<path d="M116.843 393.142C116.044 393.142 115.413 392.432 115.371 391.581C114.278 365.335 109.149 355.498 108.644 354.552C108.602 354.505 108.56 354.458 108.518 354.41C108.014 353.701 108.056 352.661 108.686 352.093C109.107 351.668 109.737 351.573 110.242 351.857C111.629 352.519 113.521 358.572 114.362 361.646C115.834 367.179 117.726 376.826 118.315 391.487C118.357 392.385 117.726 393.189 116.927 393.236C116.885 393.142 116.843 393.142 116.843 393.142Z" fill="#202D37"/>
<path d="M126.01 253.065C126.01 256.092 120.418 267.962 113.312 274.488C109.528 277.94 105.323 279.879 101.287 278.13C96.4519 276.049 93.5087 272.218 91.8689 268.293C89.5144 262.76 89.8087 257.132 91.1121 256.328C95.1064 253.822 126.01 250.323 126.01 253.065Z" fill="#202D37"/>
<path d="M104.399 280.4C103.137 280.4 101.96 280.163 100.783 279.643C94.9806 277.184 92.0374 272.455 90.5238 269.003C88.0431 263.139 87.9591 256.376 90.3977 254.863C92.7522 253.397 101.666 251.978 108.603 251.221C114.321 250.607 124.286 249.755 126.514 251.269C127.145 251.694 127.481 252.356 127.481 253.066C127.481 257.038 121.301 269.334 114.237 275.765C110.874 278.839 107.552 280.4 104.399 280.4ZM91.9113 257.7C91.4067 258.599 91.1965 262.95 93.1726 267.584C94.434 270.516 96.9146 274.489 101.792 276.569C104.903 277.894 108.435 276.759 112.387 273.164C118.82 267.3 123.571 257.322 124.412 253.87C119.619 252.924 95.5692 255.667 91.9113 257.7Z" fill="#202D37"/>
<path d="M113.354 274.489C109.57 277.941 105.365 279.88 101.329 278.13C96.4939 276.05 93.5508 272.219 91.911 268.294C99.7734 265.551 109.696 265.598 113.354 274.489Z" fill="#FFFEF2"/>
<path d="M104.398 280.401C103.137 280.401 101.96 280.164 100.783 279.644C94.9803 277.185 92.0372 272.456 90.5236 269.003C90.3554 268.578 90.3133 268.058 90.5236 267.632C90.6917 267.206 91.0281 266.875 91.4486 266.733C100.068 263.754 110.663 264.038 114.699 273.78C114.994 274.489 114.826 275.293 114.279 275.766C110.873 278.84 107.552 280.401 104.398 280.401ZM94.0554 269.334C95.4849 271.935 97.8815 274.867 101.834 276.57C104.693 277.8 107.93 276.948 111.462 274.016C108.14 267.868 100.698 267.49 94.0554 269.334Z" fill="#202D37"/>
<path d="M204.003 372.287C203.204 372.287 202.531 371.53 202.531 370.631C202.531 363.443 200.008 356.208 197.023 354.836C196.393 354.553 196.014 353.843 196.098 353.087C196.813 347.128 198.705 333.082 200.471 330.718C201.228 329.725 202.531 329.394 204.339 328.921C208.333 327.928 215.061 326.225 220.064 316.247C220.442 315.443 221.367 315.159 222.082 315.632C222.797 316.058 223.049 317.098 222.629 317.902C216.995 329.157 209.174 331.144 204.97 332.184C204.087 332.42 202.994 332.704 202.657 332.893C201.816 334.312 200.177 343.817 199.083 352.377C203.204 355.309 205.39 363.68 205.39 370.584C205.474 371.53 204.802 372.287 204.003 372.287Z" fill="#202D37"/>
<path d="M199.336 340.318C194.669 340.318 173.52 337.339 162.042 329.583C161.327 329.11 161.117 328.117 161.537 327.313C161.958 326.509 162.841 326.272 163.555 326.745C175.37 334.738 197.738 337.244 199.672 337.008C200.471 336.913 201.186 337.575 201.27 338.474C201.354 339.372 200.765 340.176 199.966 340.271C199.756 340.318 199.588 340.318 199.336 340.318Z" fill="#202D37"/>
<path d="M197.57 354.978C197.528 354.978 197.486 354.978 197.486 354.978C172.385 353.039 160.78 346.04 157.795 343.959C157.123 343.486 156.912 342.446 157.333 341.689C157.753 340.932 158.678 340.696 159.351 341.169C161.369 342.588 172.595 349.728 197.654 351.667C198.453 351.715 199.083 352.519 198.999 353.417C198.999 354.316 198.327 354.978 197.57 354.978Z" fill="#202D37"/>
<path d="M200.43 269.948C215.86 272.549 224.606 277.089 223.933 281.866C223.26 286.642 215.314 288.865 201.691 286.264C201.691 286.264 206.064 314.544 189.834 315.395" fill="#FFFEF2"/>
<path d="M189.834 317.098C189.035 317.098 188.404 316.388 188.362 315.537C188.32 314.639 188.951 313.835 189.75 313.787C192.945 313.598 195.384 312.274 197.192 309.768C202.574 302.201 200.261 286.737 200.261 286.595C200.177 286.075 200.345 285.507 200.682 285.129C201.018 284.751 201.48 284.561 201.985 284.656C211.067 286.406 218.298 285.98 221.284 283.616C221.998 283.048 222.419 282.386 222.503 281.629C222.587 281.109 222.419 280.589 222.04 280.022C219.896 276.711 211.739 273.543 200.219 271.604C199.42 271.462 198.874 270.611 199 269.712C199.126 268.814 199.883 268.199 200.682 268.341C207.997 269.57 220.779 272.455 224.437 278.083C225.278 279.359 225.614 280.778 225.404 282.197C225.152 283.805 224.353 285.224 222.965 286.311C219.476 289.101 212.622 289.811 203.457 288.297C203.919 293.216 204.466 304.944 199.546 311.848C197.234 315.111 193.996 316.909 189.96 317.145C189.876 317.098 189.834 317.098 189.834 317.098Z" fill="#202D37"/>
<path d="M330.264 365.571C324.504 365.571 317.987 364.483 313.908 361.93C310.082 359.565 309.157 356.538 309.031 354.41C308.863 351.053 308.863 346.465 308.821 341.594C308.779 330.623 308.737 316.909 306.929 310.619C305.794 306.741 303.65 304.849 300.959 302.438C297.805 299.647 293.853 296.148 290.826 288.392C283.72 270.043 284.351 250.323 292.465 235.71C299.655 222.752 312.058 215.138 327.363 214.382C340.355 213.72 350.698 217.929 358.224 226.867C370.123 241.054 370.964 263.139 370.333 269.759C368.777 285.791 361.84 295.391 356.794 302.438C353.809 306.599 351.455 309.862 351.202 312.936C351.076 314.402 349.899 327.644 348.007 340.176C345.148 358.95 342.793 362.592 341.07 363.679C339.135 364.862 334.973 365.571 330.264 365.571ZM327.489 215.99L327.573 217.645C313.236 218.401 301.715 225.401 295.03 237.412C287.42 251.127 286.874 269.665 293.601 287.068C296.292 294.067 299.781 297.141 302.851 299.837C305.71 302.343 308.401 304.755 309.83 309.626C311.764 316.388 311.806 329.772 311.848 341.594C311.848 346.418 311.89 350.958 312.058 354.221C312.143 356.113 313.278 357.721 315.38 359.045C322.486 363.443 336.697 362.639 339.724 360.747C340.145 360.464 342.373 358.241 345.19 339.561C347.082 327.123 348.217 314.024 348.343 312.558C348.68 308.491 351.286 304.897 354.608 300.309C359.696 293.216 366.044 284.42 367.516 269.381C368.104 263.139 367.306 242.425 356.206 229.089C349.31 220.861 339.724 216.983 327.615 217.645L327.489 215.99Z" fill="#D9D9D9"/>
<path d="M330.012 336.014C322.78 336.014 315.675 334.264 309.536 330.718C308.821 330.292 308.527 329.299 308.906 328.495C309.284 327.691 310.167 327.36 310.882 327.786C321.519 333.886 335.142 334.359 347.335 329.11C348.092 328.779 348.932 329.204 349.227 330.056C349.521 330.907 349.143 331.853 348.386 332.184C342.415 334.737 336.151 336.014 330.012 336.014Z" fill="#D9D9D9"/>
<path d="M313.32 352.519C312.311 352.519 311.302 352.472 310.335 352.424C309.536 352.377 308.906 351.573 308.948 350.675C308.99 349.776 309.704 349.067 310.503 349.114C323.537 350.06 342.71 343.817 345.19 341.595C345.821 341.027 346.746 341.169 347.251 341.879C347.755 342.588 347.629 343.628 346.998 344.196C344.097 346.797 326.817 352.519 313.32 352.519Z" fill="#D9D9D9"/>
<path d="M322.318 335.305C322.276 335.305 322.192 335.305 322.15 335.305C321.351 335.21 320.762 334.406 320.846 333.461L321.057 331.191C323.117 310.619 324.546 296.337 323.243 287.305C319.543 287.872 315.969 287.872 312.984 287.068C308.149 285.744 307.182 282.907 307.014 281.299C306.719 278.603 308.443 275.671 311.26 274.016C313.951 272.455 318.071 272.03 321.393 275.435C323.327 277.421 324.673 280.069 325.471 283.474C327.784 282.954 330.138 282.197 332.409 281.299C332.367 279.833 332.367 278.461 332.325 277.137C332.157 270.422 334.259 265.078 338.211 262.524C341.028 260.68 344.434 260.585 346.872 262.288C348.932 263.706 350.026 266.213 349.9 269.098C349.731 272.124 347.797 275.245 344.308 278.177C341.953 280.164 338.842 282.008 335.436 283.569C335.646 300.783 335.058 324.996 334.595 333.744C334.553 334.643 333.838 335.352 333.039 335.305C332.241 335.258 331.61 334.454 331.652 333.555C332.115 325.043 332.661 301.87 332.493 284.798C330.433 285.602 328.288 286.264 326.144 286.737C327.532 296.432 326.102 310.903 324 331.569L323.79 333.839C323.663 334.69 323.033 335.305 322.318 335.305ZM315.549 276.191C314.203 276.191 313.068 276.711 312.606 276.995C310.924 277.941 309.789 279.596 309.957 280.92C310.083 282.15 311.47 283.238 313.699 283.852C316.221 284.562 319.333 284.562 322.612 284.042C321.94 281.441 320.888 279.407 319.417 277.894C318.113 276.617 316.726 276.191 315.549 276.191ZM342.878 264.463C341.827 264.463 340.692 264.794 339.683 265.456C336.739 267.395 335.142 271.604 335.268 277.09C335.31 278.036 335.31 279.029 335.352 280.069C338.085 278.745 340.608 277.184 342.542 275.576C345.275 273.307 346.872 270.942 346.956 269.003C347.082 266.875 346.158 265.787 345.359 265.22C344.602 264.7 343.761 264.463 342.878 264.463Z" fill="#D9D9D9"/>
<path d="M392.112 267.206C391.523 267.206 390.935 266.781 390.725 266.118C390.43 265.267 390.851 264.321 391.608 263.99C399.134 260.916 403.843 259.214 403.927 259.214C404.684 258.93 405.524 259.403 405.777 260.302C406.029 261.153 405.609 262.099 404.81 262.382C404.768 262.382 400.101 264.085 392.617 267.112C392.449 267.159 392.28 267.206 392.112 267.206Z" fill="#D9D9D9"/>
<path d="M265.599 244.364C265.389 244.364 265.179 244.317 264.969 244.222C257.737 240.297 253.364 237.696 253.322 237.696C252.607 237.27 252.313 236.277 252.691 235.473C253.07 234.669 253.953 234.338 254.668 234.764C254.71 234.811 259.04 237.365 266.188 241.243C266.903 241.621 267.239 242.614 266.861 243.466C266.65 244.033 266.146 244.364 265.599 244.364Z" fill="#D9D9D9"/>
<path d="M356.038 196.411C355.87 196.411 355.701 196.364 355.491 196.317C354.734 195.986 354.356 195.04 354.65 194.189C356.795 187.994 359.275 182.886 359.401 182.697C359.78 181.893 360.705 181.609 361.419 182.035C362.134 182.46 362.387 183.501 362.008 184.305C361.966 184.352 359.485 189.365 357.467 195.371C357.173 196.033 356.626 196.411 356.038 196.411Z" fill="#D9D9D9"/>
<path d="M328.624 186.386C327.91 186.386 327.279 185.771 327.153 184.967C327.111 184.683 326.312 177.921 327.153 166.713C327.237 165.814 327.952 165.105 328.75 165.199C329.549 165.294 330.18 166.098 330.096 166.996C329.255 177.779 330.096 184.4 330.096 184.494C330.222 185.393 329.633 186.244 328.835 186.386C328.75 186.386 328.708 186.386 328.624 186.386Z" fill="#D9D9D9"/>
<path d="M302.389 198.161C301.884 198.161 301.38 197.877 301.127 197.357C301.085 197.263 296.04 187.521 292.508 181.467C292.046 180.711 292.256 179.67 292.929 179.197C293.601 178.677 294.526 178.914 294.947 179.67C298.521 185.818 303.608 195.607 303.65 195.702C304.071 196.506 303.818 197.499 303.104 197.972C302.893 198.067 302.641 198.161 302.389 198.161Z" fill="#D9D9D9"/>
<path d="M669.694 274.016C662.756 274.016 630.592 252.357 623.234 246.162C618.525 247.675 591.868 256.046 564.833 260.254C564.034 260.396 563.278 259.734 563.194 258.836C563.067 257.937 563.656 257.086 564.455 256.991C593.844 252.404 622.855 242.851 623.15 242.757C623.612 242.615 624.117 242.709 624.495 243.04C632.526 250.276 662.924 269.382 668.979 270.658C668.012 264.984 657.543 241.007 652.876 230.367C649.134 221.807 648.545 220.388 648.461 219.773C648.209 218.307 649.218 217.409 650.311 216.51C652.413 214.713 656.744 210.93 659.098 199.391C659.603 196.932 660.065 193.574 660.486 189.413C660.57 188.514 661.327 187.852 662.125 187.946C662.924 188.041 663.513 188.892 663.429 189.791C663.008 194.047 662.504 197.547 661.957 200.148C659.393 212.822 654.473 217.078 652.119 219.159C651.951 219.3 651.74 219.49 651.572 219.679C652.161 221.145 653.843 224.975 655.566 228.948C670.787 263.707 672.847 270.564 671.754 272.834C671.586 273.165 671.165 273.78 670.324 273.969C670.072 273.969 669.904 274.016 669.694 274.016Z" fill="#FBD931"/>
<path d="M661.915 191.256C661.326 191.256 660.738 190.831 660.527 190.169C660.443 189.932 652.959 167.044 644.466 140.702C635.679 113.416 630.97 93.6006 630.886 93.4115C630.717 92.7494 630.97 92.04 631.432 91.6144C631.558 91.5198 642.364 82.7237 642.995 74.6369C643.163 72.367 642.49 70.428 640.976 68.6783C639.463 66.9758 637.865 66.2191 636.057 66.361C631.012 66.8339 626.219 74.3059 626.177 74.4005C625.714 75.1571 624.789 75.3463 624.116 74.7788C623.444 74.2586 623.275 73.2182 623.78 72.4615C623.99 72.0832 629.372 63.6181 635.805 63.0033C638.496 62.7669 640.934 63.8546 643.037 66.2664C645.181 68.7256 646.148 71.6103 645.896 74.8261C645.265 83.0547 636.73 91.1415 633.955 93.506C635.048 97.9514 639.589 115.875 647.157 139.426C655.608 165.719 663.134 188.655 663.218 188.892C663.513 189.743 663.092 190.689 662.335 191.02C662.251 191.209 662.083 191.256 661.915 191.256Z" fill="#202D37"/>
<path d="M563.908 260.349C563.824 260.349 563.698 260.349 563.614 260.302C562.815 260.113 562.311 259.214 562.479 258.363C565.758 240.723 578.414 211.072 580.684 205.823C579.423 203.032 575.219 193.149 575.219 184.589C575.219 175.414 578.582 174.847 588.505 173.05C590.481 172.719 592.709 172.293 595.316 171.773C613.942 167.99 637.487 159.572 648.167 149.215C648.797 148.6 649.722 148.695 650.227 149.404C650.773 150.114 650.689 151.154 650.059 151.722C638.202 163.213 613.395 171.489 595.779 175.036C593.172 175.556 590.901 175.982 588.925 176.313C578.876 178.11 578.12 178.394 578.12 184.589C578.12 193.669 583.543 204.877 583.585 205.019C583.796 205.492 583.838 206.059 583.628 206.532C583.459 206.863 568.786 240.487 565.338 259.072C565.212 259.829 564.623 260.349 563.908 260.349Z" fill="#202D37"/>
<path d="M39.9853 408.842C39.0603 408.842 38.2614 408.606 37.6308 408.039C36.2012 406.762 36.1592 404.397 37.5887 401.749C41.2887 394.75 46.7966 378.009 48.2261 373.516C46.0398 371.388 41.9193 366.186 38.0512 360.606C37.5467 359.896 37.6728 358.856 38.3035 358.288C38.9342 357.721 39.8591 357.863 40.3637 358.572C46.1659 366.895 49.992 371.01 50.6227 371.483C51.2954 371.861 51.5897 372.712 51.3374 373.516C51.0431 374.415 44.4841 395.128 40.1114 403.451C39.4807 404.634 39.4807 405.296 39.5228 405.485C39.9012 405.627 45.7034 406.951 68.9123 382.501C69.2907 382.123 69.7952 381.981 70.2997 382.123C78.8349 384.677 87.1598 386.805 95.0643 388.46C95.8631 388.602 96.4097 389.5 96.2415 390.399C96.0734 391.297 95.3165 391.912 94.5177 391.723C86.7814 390.115 78.6247 388.082 70.2997 385.575C61.3021 394.939 46.8807 408.842 39.9853 408.842ZM50.4965 371.388C50.5386 371.388 50.5386 371.435 50.5806 371.435C50.5386 371.435 50.5386 371.388 50.4965 371.388Z" fill="#FBD931"/>
<path d="M38.8499 362.024C38.6397 362.024 38.4295 361.977 38.2193 361.882C37.5045 361.504 37.1682 360.511 37.5045 359.66C61.7645 302.39 61.4702 253.964 61.1338 244.79C61.1338 244.79 61.0918 244.79 61.0497 244.79C51.1271 244.79 43.4329 240.723 40.3215 233.818C38.3034 229.326 38.5977 224.36 41.1204 220.813C43.9374 216.841 48.8567 215.469 54.6168 217.03C55.4157 217.266 55.8782 218.165 55.71 219.016C55.4998 219.915 54.7009 220.435 53.9441 220.246C49.3612 218.969 45.5351 219.915 43.4749 222.847C41.709 225.353 41.4988 228.995 43.0124 232.305C45.7453 238.406 53.0612 241.81 62.5213 241.432C63.3202 241.385 63.9929 242.094 64.0349 242.945C64.077 243.513 64.9179 256.565 62.3952 277.752C60.0827 297.283 54.3646 327.549 40.1533 361.078C39.9011 361.693 39.3965 362.024 38.8499 362.024Z" fill="#202D37"/>
<path d="M94.7699 391.676C94.6858 391.676 94.6017 391.676 94.5176 391.676C93.7188 391.534 93.1722 390.683 93.2983 389.784C93.4665 388.602 97.4608 361.126 101.623 352.093C102.002 351.289 102.885 350.958 103.599 351.384C104.314 351.81 104.608 352.803 104.23 353.607C100.278 362.214 96.2415 390.068 96.1994 390.304C96.1153 391.108 95.4847 391.676 94.7699 391.676Z" fill="#202D37"/>
</svg>
