<svg width="29" height="18" viewBox="0 0 29 18" fill="none" xmlns="http://www.w3.org/2000/svg">
<path d="M28.3001 4.62857C28.0429 2.7 27.7858 1.28571 27.0143 0.771428C26.2429 0.128571 19.5572 0 14.4143 0C9.27148 0 2.58577 0.128571 1.81434 0.771428C1.04291 1.28571 0.78577 2.7 0.528627 4.62857C0.271484 6.55714 0.271484 7.71429 0.271484 9C0.271484 10.2857 0.271484 11.4429 0.528627 13.3714C0.78577 15.3 1.04291 16.7143 1.81434 17.2286C2.58577 17.8714 9.27148 18 14.4143 18C19.5572 18 26.2429 17.8714 27.0143 17.2286C27.7858 16.7143 28.0429 15.3 28.3001 13.3714C28.5572 11.4429 28.5572 10.2857 28.5572 9C28.5572 7.71429 28.5572 6.55714 28.3001 4.62857ZM11.8429 13.6286V4.37143L19.5572 9L11.8429 13.6286Z" fill="#FCFFFD"/>
</svg>
