<svg width="19" height="18" viewBox="0 0 19 18" fill="none" xmlns="http://www.w3.org/2000/svg">
<path d="M15.08 0H3.07996C1.37996 0 0.0799561 1.3 0.0799561 3V15C0.0799561 16.7 1.37996 18 3.07996 18H15.08C16.78 18 18.08 16.7 18.08 15V3C18.08 1.3 16.78 0 15.08 0ZM9.07996 6C10.78 6 12.08 7.3 12.08 9C12.08 10.7 10.78 12 9.07996 12C7.37996 12 6.07996 10.7 6.07996 9C6.07996 7.3 7.37996 6 9.07996 6ZM12.88 4C12.88 3.3 13.48 2.8 14.08 2.8C14.68 2.8 15.28 3.4 15.28 4C15.28 4.6 14.78 5.2 14.08 5.2C13.38 5.2 12.88 4.7 12.88 4ZM15.08 16H3.07996C2.47996 16 2.07996 15.6 2.07996 15V9H4.07996C4.07996 11.8 6.27996 14 9.07996 14C11.88 14 14.08 11.8 14.08 9H16.08V15C16.08 15.6 15.68 16 15.08 16Z" fill="#FCFFFD"/>
</svg>
