<svg width="19" height="18" viewBox="0 0 19 18" fill="none" xmlns="http://www.w3.org/2000/svg">
<path d="M4.47859 18H0.621481V5.14299H4.47859V18ZM18.6213 18H14.7642V11.1318C14.7642 9.34209 14.1265 8.4511 12.8626 8.4511C11.8611 8.4511 11.2259 8.94995 10.9071 9.94894V18H7.04999C7.04999 18 7.10142 6.42869 7.04999 5.14299H10.0945L10.3298 7.71439H10.4095C11.2002 6.42869 12.4641 5.55698 14.1972 5.55698C15.515 5.55698 16.5809 5.92341 17.3947 6.84397C18.2137 7.76582 18.6213 9.00266 18.6213 10.7396V18Z" fill="#FCFFFD"/>
<path d="M2.55003 3.85711C3.65064 3.85711 4.54287 2.99366 4.54287 1.92855C4.54287 0.863442 3.65064 0 2.55003 0C1.44941 0 0.55719 0.863442 0.55719 1.92855C0.55719 2.99366 1.44941 3.85711 2.55003 3.85711Z" fill="#FCFFFD"/>
</svg>
