<svg width="23" height="18" viewBox="0 0 23 18" fill="none" xmlns="http://www.w3.org/2000/svg">
<path d="M19.6703 2.85145C20.6664 2.23998 21.326 1.40538 21.649 0.343949C20.7392 0.835967 19.763 1.1935 18.7507 1.40538C17.884 0.473393 16.7868 0 15.4714 0C14.1856 0 13.0995 0.451202 12.2132 1.32895C11.7851 1.74576 11.4467 2.24559 11.2186 2.7978C10.9905 3.35001 10.8775 3.94298 10.8867 4.54037C10.8867 4.92131 10.9348 5.26156 11.0309 5.55003C7.23884 5.42059 4.10015 3.84754 1.62717 0.819807C1.20802 1.56071 0.998447 2.31518 0.998447 3.09554C0.998447 4.6994 1.67525 5.97041 3.02639 6.90364C2.2559 6.8383 1.57663 6.64352 0.998447 6.32422C0.998447 7.46949 1.335 8.42614 2.00934 9.26813C2.66439 10.0886 3.58753 10.6521 4.61669 10.8597C4.23206 10.9583 3.82647 11.0051 3.40979 11.0051C3.02516 11.0051 2.75271 10.9731 2.59122 10.9028C2.87476 11.836 3.40979 12.593 4.18275 13.1724C4.94688 13.7526 5.87639 14.0735 6.83572 14.0884C5.19364 15.3766 3.3161 16.014 1.192 16.014C0.671757 16.014 0.303153 16.0066 0.0800171 15.9671C2.17207 17.3257 4.50081 18 7.07735 18C9.71429 18 12.0443 17.3318 14.0722 15.9955C16.1002 14.6665 17.5968 13.0269 18.5583 11.0964C19.5093 9.22832 20.0044 7.16168 20.0032 5.06554V4.4886C20.8895 3.83512 21.6568 3.03404 22.2715 2.1204C21.4414 2.48021 20.5664 2.72612 19.6703 2.85145Z" fill="#FCFFFD"/>
</svg>
