<svg width="23" height="21" viewBox="0 0 23 21" fill="none" xmlns="http://www.w3.org/2000/svg">
<path d="M21.811 14.6788H7.04709L7.78839 13.1689L20.1052 13.1466C20.5217 13.1466 20.8788 12.8491 20.9531 12.4375L22.6589 2.88998C22.7035 2.63958 22.6365 2.38174 22.4729 2.18588C22.392 2.08949 22.2912 2.01184 22.1773 1.95833C22.0634 1.90482 21.9393 1.87671 21.8134 1.87598L6.14465 1.82391L6.01077 1.19419C5.92648 0.79255 5.56451 0.5 5.15296 0.5H1.32254C1.09043 0.5 0.867823 0.592205 0.703696 0.756331C0.53957 0.920458 0.447365 1.14306 0.447365 1.37517C0.447365 1.60728 0.53957 1.82988 0.703696 1.99401C0.867823 2.15814 1.09043 2.25034 1.32254 2.25034H4.4439L5.029 5.03204L6.46943 12.0061L4.61496 15.0333C4.51866 15.1633 4.46065 15.3176 4.44751 15.4788C4.43436 15.6401 4.4666 15.8018 4.54059 15.9456C4.68934 16.2407 4.98933 16.4266 5.32155 16.4266H6.87851C6.54658 16.8675 6.3673 17.4045 6.36778 17.9563C6.36778 19.3596 7.50823 20.5 8.91148 20.5C10.3147 20.5 11.4552 19.3596 11.4552 17.9563C11.4552 17.4034 11.2717 16.8654 10.9445 16.4266H14.9385C14.6066 16.8675 14.4273 17.4045 14.4278 17.9563C14.4278 19.3596 15.5682 20.5 16.9715 20.5C18.3747 20.5 19.5152 19.3596 19.5152 17.9563C19.5152 17.4034 19.3317 16.8654 19.0045 16.4266H21.8134C22.2944 16.4266 22.6886 16.0349 22.6886 15.5514C22.6872 15.3196 22.5941 15.0977 22.4297 14.9342C22.2652 14.7707 22.0428 14.6789 21.811 14.6788ZM6.5091 3.54946L20.7845 3.59657L19.3863 11.426L8.17267 11.4458L6.5091 3.54946ZM8.91148 18.7397C8.48009 18.7397 8.12804 18.3877 8.12804 17.9563C8.12804 17.5249 8.48009 17.1729 8.91148 17.1729C9.34287 17.1729 9.69492 17.5249 9.69492 17.9563C9.69492 18.1641 9.61238 18.3634 9.46546 18.5103C9.31853 18.6572 9.11926 18.7397 8.91148 18.7397ZM16.9715 18.7397C16.5401 18.7397 16.188 18.3877 16.188 17.9563C16.188 17.5249 16.5401 17.1729 16.9715 17.1729C17.4029 17.1729 17.7549 17.5249 17.7549 17.9563C17.7549 18.1641 17.6724 18.3634 17.5255 18.5103C17.3785 18.6572 17.1793 18.7397 16.9715 18.7397Z" fill="#F5C249"/>
</svg>
