<svg width="18" height="18" viewBox="0 0 18 18" fill="none" xmlns="http://www.w3.org/2000/svg">
<path fill-rule="evenodd" clip-rule="evenodd" d="M13.6381 12.2923C14.8254 10.761 15.385 8.83464 15.203 6.9052C15.021 4.97576 14.111 3.18816 12.6583 1.90607C11.2055 0.62398 9.31913 -0.0562918 7.38281 0.00364974C5.4465 0.0635913 3.60574 0.859243 2.23502 2.22874C0.863103 3.59918 0.0651678 5.44139 0.00381831 7.37994C-0.0575312 9.3185 0.622323 11.2075 1.90484 12.662C3.18735 14.1165 4.976 15.0271 6.90629 15.2081C8.83659 15.3892 10.7632 14.8271 12.2936 13.6364L12.3346 13.6792L16.3737 17.7208C16.4621 17.8094 16.5671 17.8796 16.6827 17.9275C16.7983 17.9753 16.9222 18 17.0473 18C17.1724 18 17.2963 17.9753 17.4119 17.9275C17.5275 17.8796 17.6325 17.8094 17.721 17.7208C17.8094 17.6323 17.8796 17.5273 17.9275 17.4117C17.9754 17.296 18 17.1721 18 17.0469C18 16.9218 17.9754 16.7978 17.9275 16.6822C17.8796 16.5666 17.8094 16.4615 17.721 16.373L13.6809 12.3323C13.667 12.3186 13.6527 12.3053 13.6381 12.2923ZM11.6614 3.57658C12.199 4.1057 12.6266 4.73606 12.9194 5.43131C13.2123 6.12655 13.3646 6.87293 13.3677 7.62737C13.3708 8.38182 13.2245 9.12941 12.9373 9.82702C12.6501 10.5246 12.2277 11.1585 11.6944 11.6919C11.1612 12.2254 10.5276 12.648 9.83027 12.9353C9.13294 13.2226 8.38565 13.3689 7.6315 13.3658C6.87736 13.3628 6.13128 13.2103 5.43631 12.9174C4.74134 12.6244 4.11123 12.1967 3.58233 11.6589C2.52535 10.5841 1.93571 9.13507 1.94185 7.62737C1.94799 6.11967 2.5494 4.67547 3.61509 3.60936C4.68078 2.54324 6.1244 1.94159 7.6315 1.93545C9.13861 1.92931 10.5871 2.51919 11.6614 3.57658Z" fill="#F5C249"/>
</svg>
