<svg width="20" height="21" viewBox="0 0 20 21" fill="none" xmlns="http://www.w3.org/2000/svg">
<path d="M9.97368 0.5C7.07158 0.5 4.71053 2.86105 4.71053 5.76316C4.71053 8.66526 7.07158 11.0263 9.97368 11.0263C12.8758 11.0263 15.2368 8.66526 15.2368 5.76316C15.2368 2.86105 12.8758 0.5 9.97368 0.5ZM9.97368 8.92105C8.23263 8.92105 6.81579 7.50421 6.81579 5.76316C6.81579 4.02211 8.23263 2.60526 9.97368 2.60526C11.7147 2.60526 13.1316 4.02211 13.1316 5.76316C13.1316 7.50421 11.7147 8.92105 9.97368 8.92105ZM19.4474 20.5V19.4474C19.4474 15.3853 16.1411 12.0789 12.0789 12.0789H7.86842C3.80526 12.0789 0.5 15.3853 0.5 19.4474V20.5H2.60526V19.4474C2.60526 16.5453 4.96632 14.1842 7.86842 14.1842H12.0789C14.9811 14.1842 17.3421 16.5453 17.3421 19.4474V20.5H19.4474Z" fill="#F5C249"/>
</svg>
