<svg width="43" height="14" viewBox="0 0 43 14" fill="none" xmlns="http://www.w3.org/2000/svg">
<path d="M31.0169 1.02994C30.3379 0.773248 29.2614 0.5 27.9366 0.5C24.55 0.5 22.157 2.21401 22.1404 4.66497C22.1156 6.46178 23.8379 7.48026 25.1379 8.08471C26.4793 8.70573 26.9264 9.0949 26.9181 9.6414C26.9099 10.4943 25.85 10.8669 24.8646 10.8669C23.5067 10.8669 22.7697 10.6847 21.6271 10.2045L21.2048 10.0057L20.7245 12.8376C21.5525 13.1771 23.0347 13.4752 24.5665 13.5C28.1767 13.5 30.5283 11.8025 30.5532 9.18599C30.578 7.7535 29.6589 6.66051 27.6882 5.76624C26.5041 5.18663 25.7589 4.78917 25.7589 4.20127C25.7589 3.67962 26.3965 3.12484 27.7213 3.12484C28.864 3.1 29.6589 3.35669 30.2882 3.6051L30.6111 3.74586L31.0831 1.02166L31.0169 1.02994ZM39.8188 0.731847H37.1691C36.3411 0.731847 35.7283 0.955414 35.364 1.77516L30.2716 13.3178H33.8736L34.6022 11.4299L38.999 11.4382C39.1067 11.8771 39.4213 13.3178 39.4213 13.3178H42.5927L39.8188 0.731847ZM17.2634 0.632485H20.6914L18.5468 13.2268H15.1188L17.2634 0.632485ZM8.54425 7.56306L8.89202 9.31847L12.2538 0.731847H15.8888L10.4818 13.293H6.85508L3.89075 2.66115C3.82451 2.47898 3.74998 2.3465 3.56782 2.23885C2.56591 1.7172 1.43979 1.28662 0.197754 0.988535L0.239155 0.723567H5.77037C6.51559 0.748407 7.12005 0.988535 7.32705 1.78344L8.54425 7.56306ZM35.5793 8.85478L36.9538 5.32739C36.929 5.36051 37.2353 4.59873 37.4092 4.12675L37.6411 5.21146L38.436 8.8465L35.5793 8.85478Z" fill="#FCFFFD"/>
</svg>
