<svg width="24" height="18" viewBox="0 0 24 18" fill="none" xmlns="http://www.w3.org/2000/svg">
<path d="M4.22469 17.9557V16.7612C4.22469 16.3037 3.94513 16.0051 3.4686 16.0051C3.22716 16.0051 2.97301 16.0877 2.78876 16.3418C2.64898 16.1258 2.45201 16.0051 2.15339 16.0051C1.95642 16.0051 1.75311 16.0623 1.59426 16.2846V16.0432H1.18127V17.9557H1.60062V16.9009C1.60062 16.5642 1.77852 16.4054 2.05808 16.4054C2.33765 16.4054 2.47743 16.5833 2.47743 16.9009V17.9557H2.89677V16.9009C2.89677 16.5642 3.09373 16.4054 3.35424 16.4054C3.6338 16.4054 3.77358 16.5833 3.77358 16.9009V17.9557H4.22469ZM10.4195 16.0432H9.73969V15.465H9.32035V16.0432H8.93913V16.4244H9.32035V17.3012C9.32035 17.7396 9.49825 18.0001 9.97478 18.0001C10.1527 18.0001 10.356 17.943 10.4894 17.8604L10.3687 17.5045C10.248 17.5871 10.1082 17.6062 10.0129 17.6062C9.81594 17.6062 9.73334 17.4855 9.73334 17.2885V16.4308H10.4132V16.0432H10.4195ZM13.9585 16.0051C13.7171 16.0051 13.5583 16.1258 13.463 16.2846V16.0432H13.0436V17.9557H13.463V16.8819C13.463 16.5642 13.6027 16.3863 13.8632 16.3863C13.9458 16.3863 14.0411 16.4054 14.1237 16.4244L14.2445 16.0241C14.1619 16.0051 14.0411 16.0051 13.9585 16.0051ZM8.60238 16.202C8.40542 16.0623 8.12586 16.0051 7.82723 16.0051C7.35071 16.0051 7.03302 16.2465 7.03302 16.6214C7.03302 16.9391 7.27446 17.117 7.68745 17.1805L7.88442 17.1996C8.10044 17.2377 8.22116 17.3012 8.22116 17.3965C8.22116 17.5363 8.06232 17.638 7.78276 17.638C7.50319 17.638 7.28717 17.5363 7.14739 17.441L6.95042 17.7587C7.16645 17.9175 7.46507 18.0001 7.7637 18.0001C8.32282 18.0001 8.6405 17.7396 8.6405 17.3838C8.6405 17.0471 8.38 16.8692 7.98607 16.8056L7.78911 16.7866C7.61121 16.7675 7.47143 16.7294 7.47143 16.6087C7.47143 16.4689 7.61121 16.3927 7.82723 16.3927C8.06867 16.3927 8.30376 16.4943 8.42448 16.5515L8.60238 16.202ZM19.715 16.0051C19.4735 16.0051 19.3147 16.1258 19.2194 16.2846V16.0432H18.8001V17.9557H19.2194V16.8819C19.2194 16.5642 19.3592 16.3863 19.6197 16.3863C19.7023 16.3863 19.7976 16.4054 19.8802 16.4244L20.0009 16.0241C19.9119 16.0051 19.7912 16.0051 19.715 16.0051ZM14.3779 16.9963C14.3779 17.5744 14.7782 17.9938 15.3945 17.9938C15.674 17.9938 15.871 17.9366 16.0743 17.7778L15.8774 17.441C15.7185 17.5617 15.5597 17.6189 15.3818 17.6189C15.045 17.6189 14.8036 17.3775 14.8036 17.0026C14.8036 16.6468 15.045 16.4054 15.3818 16.3863C15.5597 16.3863 15.7185 16.4435 15.8774 16.5642L16.0743 16.2275C15.8774 16.0686 15.674 16.0114 15.3945 16.0114C14.7782 16.0051 14.3779 16.4244 14.3779 16.9963ZM18.2409 16.9963V16.0432H17.8216V16.2846C17.6818 16.1067 17.4848 16.0051 17.2243 16.0051C16.6843 16.0051 16.2713 16.4244 16.2713 17.0026C16.2713 17.5808 16.6906 18.0001 17.2243 18.0001C17.5039 18.0001 17.7009 17.8985 17.8216 17.7206V17.962H18.2409V16.9963ZM16.7097 16.9963C16.7097 16.6595 16.9257 16.3799 17.2879 16.3799C17.6246 16.3799 17.8661 16.6404 17.8661 16.9963C17.8661 17.333 17.6246 17.6126 17.2879 17.6126C16.9257 17.5935 16.7097 17.3394 16.7097 16.9963ZM11.7093 16.0051C11.1502 16.0051 10.7563 16.4054 10.7563 17.0026C10.7563 17.5999 11.1566 18.0001 11.7348 18.0001C12.0143 18.0001 12.2939 17.9175 12.5099 17.7396L12.3129 17.441C12.1541 17.5617 11.9571 17.638 11.7538 17.638C11.4933 17.638 11.2392 17.5173 11.1756 17.1805H12.5861V17.0217C12.6052 16.399 12.2494 16.0051 11.7093 16.0051ZM11.7093 16.3609C11.9698 16.3609 12.1477 16.5197 12.1859 16.8183H11.1883C11.2328 16.5642 11.4107 16.3609 11.7093 16.3609ZM22.0849 16.9963V15.2871H21.6656V16.2846C21.5258 16.1067 21.3288 16.0051 21.0683 16.0051C20.5283 16.0051 20.1153 16.4244 20.1153 17.0026C20.1153 17.5808 20.5346 18.0001 21.0683 18.0001C21.3479 18.0001 21.5448 17.8985 21.6656 17.7206V17.962H22.0849V16.9963ZM20.5473 16.9963C20.5473 16.6595 20.7633 16.3799 21.1255 16.3799C21.4622 16.3799 21.7037 16.6404 21.7037 16.9963C21.7037 17.333 21.4622 17.6126 21.1255 17.6126C20.7697 17.5935 20.5473 17.3394 20.5473 16.9963ZM6.57556 16.9963V16.0432H6.15621V16.2846C6.01643 16.1067 5.81947 16.0051 5.55897 16.0051C5.0189 16.0051 4.60591 16.4244 4.60591 17.0026C4.60591 17.5808 5.02526 18.0001 5.55897 18.0001C5.83853 18.0001 6.03549 17.8985 6.15621 17.7206V17.962H6.57556V16.9963ZM5.02526 16.9963C5.02526 16.6595 5.24128 16.3799 5.60344 16.3799C5.94019 16.3799 6.18163 16.6404 6.18163 16.9963C6.18163 17.333 5.94019 17.6126 5.60344 17.6126C5.24128 17.5935 5.02526 17.3394 5.02526 16.9963Z" fill="#FCFFFD"/>
<path d="M14.7402 1.53174H8.46912V12.7968H14.7402V1.53174Z" fill="#FCFFFD"/>
<path d="M8.86339 7.16696C8.86339 4.87963 9.93717 2.84645 11.5891 1.53124C10.3756 0.578186 8.84433 0 7.16696 0C3.20861 0 0 3.20226 0 7.16696C0 11.1253 3.20226 14.3339 7.16696 14.3339C8.83798 14.3339 10.3692 13.7557 11.5891 12.8027C9.93717 11.5065 8.86339 9.45429 8.86339 7.16696Z" fill="#FCFFFD"/>
<path d="M23.1977 7.16696C23.1977 11.1253 19.9955 14.3339 16.0307 14.3339C14.3597 14.3339 12.8285 13.7557 11.6086 12.8027C13.2796 11.4875 14.3343 9.46064 14.3343 7.16696C14.3343 4.87963 13.2605 2.84645 11.6086 1.53124C12.8221 0.578186 14.3534 0 16.0307 0C19.9955 0 23.1977 3.22132 23.1977 7.16696Z" fill="#FCFFFD"/>
</svg>
